<?xml version="1.0" encoding="iso-8859-1"?>
<!-- Generator: Adobe Illustrator 19.0.0, SVG Export Plug-In . SVG Version: 6.00 Build 0)  -->
<svg xmlns="http://www.w3.org/2000/svg" xmlns:xlink="http://www.w3.org/1999/xlink" version="1.1" id="Layer_1" x="0px" y="0px" viewBox="0 0 512 512" style="enable-background:new 0 0 512 512;" xml:space="preserve" width="512" height="512">
<g>
	<path d="M347.553,248.5l-55-41.25l-40,30l-40-30l-55,41.25v30l-40,30v45l40,30v30l55,41.25l40-30l40,30l55-41.25v-30l40-30v-45   l-40-30V248.5z M317.553,263.5v15l-25,18.75l-25-18.75v-15l25-18.75L317.553,263.5z M252.553,357.25l-25-18.75v-15l25-18.75   l25,18.75v15L252.553,357.25z M212.553,244.75l25,18.75v15l-25,18.75l-25-18.75v-15L212.553,244.75z M147.553,323.5l25-18.75   l25,18.75v15l-25,18.75l-25-18.75V323.5z M187.553,398.5v-15l25-18.75l25,18.75v15l-25,18.75L187.553,398.5z M292.553,417.25   l-25-18.75v-15l25-18.75l25,18.75v15L292.553,417.25z M357.553,338.5l-25,18.75l-25-18.75v-15l25-18.75l25,18.75V338.5z"/>
	<path d="M463.553,90c24.813,0,45-20.187,45-45s-20.187-45-45-45c-14.053,0-27.482,6.699-35.949,17.928l-10.051,13.04V0h-330v68.787   L3.447,152.894c0,0,16.238,10.454,16.536,10.653c12.355,8.237,26.085,13.321,40.143,15.275   c-13.119,28.058-21.504,58.34-24.944,90.356c-7.952,74.013,10.267,153.048,54.152,234.909L93.575,512h317.964l4.24-7.922   c43.678-81.62,61.907-160.535,54.178-234.554c-3.372-32.299-11.637-62.647-24.585-90.563c14.448-1.837,28.585-6.969,41.273-15.428   l15.439-10.214L438.767,90H463.553z M451.537,36.018c8.632-11.508,27.016-5.379,27.016,8.982c0,8.271-6.729,15-15,15h-30.5   L451.537,36.018z M117.553,30h270v30h-270V30z M393.489,482H111.611C34.974,333.461,65.922,229.534,94.48,177.363   c11.245-2.551,22.147-7.152,32.143-13.816c22.281-14.854,51.077-14.854,73.359,0c16.197,10.798,34.755,16.197,53.32,16.196   c18.56-0.001,37.127-5.4,53.321-16.196c22.281-14.854,51.077-14.854,73.359,0c9.609,6.406,20.054,10.896,30.836,13.501   C439.358,229.026,470.336,332.838,393.489,482z M396.623,138.586c-32.391-21.594-74.25-21.594-106.641,0   c-22.282,14.855-51.077,14.854-73.359,0c-32.391-21.594-74.25-21.594-106.641,0c-17.291,11.528-38.502,14.11-57.549,7.747   L108.767,90H396.34l56.7,56.7C434.287,152.589,413.572,149.884,396.623,138.586z"/>
</g>















</svg>
