<svg height="496pt" viewBox="-32 0 496 496.944" width="496pt" xmlns="http://www.w3.org/2000/svg"><path d="m384.472656 371.054688v-64l-56-28-16.640625 8.320312 1.503907-5.269531c4.734374-16.578125 7.136718-33.722657 7.136718-50.960938 0-32.234375-8.457031-64.054687-24.449218-92.039062l-7.550782-13.234375v-13.871094h8c13.230469 0 24-10.769531 24-24v-16c0-13.230469-10.769531-24-24-24h-112v-24c0-13.230469-10.769531-24-24-24-13.234375 0-24 10.769531-24 24v24h-112c-13.234375 0-24 10.769531-24 24v16c0 13.230469 10.765625 24 24 24h8v13.871094l-7.550781 13.226562c-15.992187 27.992188-24.449219 59.804688-24.449219 92.046875 0 17.238281 2.398438 34.390625 7.136719 50.960938l34.535156 120.886719c4.886719 17.078124 20.703125 29.007812 38.472657 29.007812h159.855468v-27.054688l40-20 40 20v54.109376l-40 20-40-20v-11.023438h-16v20.914062l56 28 48-24 48 24 56-28v-73.890624zm-102.335937-224.015626c5.992187 10.496094 10.757812 21.601563 14.382812 33.058594-4.726562 1.367188-8.894531 2.902344-12.910156 4.429688-10.097656 3.839844-19.632813 7.472656-39.160156 7.472656-19.527344 0-29.074219-3.632812-39.167969-7.480469-6.113281-2.328125-12.480469-4.6875-20.816406-6.351562v-66.167969h88v18.128906zm-65.664063 164.960938c0 4.414062-3.585937 8-8 8h-96c-4.417968 0-8-3.585938-8-8s3.582032-8 8-8h96c4.414063 0 8 3.585938 8 8zm-17.472656 24c-3.3125 9.289062-12.113281 16-22.527344 16h-32c-10.417968 0-19.214844-6.710938-22.527344-16zm-86.527344-48c-4.417968 0-8-3.585938-8-8s3.582032-8 8-8h96c4.414063 0 8 3.585938 8 8s-3.585937 8-8 8zm9.472656-32c3.3125-9.289062 12.109376-16 22.527344-16h32c10.414063 0 19.214844 6.710938 22.527344 16zm30.527344-32v-112h16v112zm0-200c0-4.414062 3.582032-8 8-8 4.414063 0 8 3.585938 8 8v24h-16zm-113.664062 123.039062 9.664062-16.910156v-18.128906h72v-16h-96c-4.417968 0-8-3.585938-8-8v-16c0-4.414062 3.582032-8 8-8h272c4.414063 0 8 3.585938 8 8v16c0 4.414062-3.585937 8-8 8h-160v82.160156c-8.359375 1.65625-14.746094 4.023438-20.871094 6.359375-10.089843 3.847657-19.617187 7.480469-39.136718 7.480469-19.519532 0-29.058594-3.632812-39.144532-7.480469-4.007812-1.527343-8.175781-3.0625-12.894531-4.421875 3.621094-11.457031 8.390625-22.5625 14.382813-33.058594zm185.664062 248.015626v20.945312h-143.855468c-10.65625 0-20.152344-7.160156-23.082032-17.40625l-34.535156-120.882812c-4.335938-15.152344-6.527344-30.816407-6.527344-46.566407 0-12 1.351563-23.921875 3.855469-35.578125 3.976563 1.167969 7.601563 2.503906 11.304687 3.914063 11 4.183593 22.359376 8.519531 44.832032 8.519531s33.832031-4.335938 44.832031-8.519531c4.824219-1.839844 9.550781-3.578125 15.175781-4.9375v30.265625c-16.058594 3.269531-28.542968 16.222656-31.320312 32.457031-9.640625 3.109375-16.679688 12.070313-16.679688 22.734375 0 6.167969 2.40625 11.742188 6.238282 16-3.839844 4.257812-6.238282 9.832031-6.238282 16 0 10.664062 7.039063 19.625 16.679688 22.734375 3.222656 18.851563 19.574218 33.265625 39.320312 33.265625h32c19.742188 0 36.09375-14.414062 39.320313-33.265625 9.640625-3.109375 16.679687-12.070313 16.679687-22.734375 0-6.167969-2.410156-11.742188-6.242187-16 3.839843-4.257812 6.242187-9.832031 6.242187-16 0-10.664062-7.039062-19.625-16.679687-22.734375-2.777344-16.234375-15.265625-29.1875-31.320313-32.457031v-30.25c5.597656 1.351562 10.3125 3.082031 15.121094 4.914062 11.007812 4.191406 22.382812 8.527344 44.855469 8.527344 22.472656 0 33.847656-4.328125 44.847656-8.519531 3.710937-1.410157 7.335937-2.753907 11.320313-3.914063 2.503906 11.65625 3.855468 23.578125 3.855468 35.578125 0 15.757813-2.191406 31.421875-6.519531 46.558594l-5.546875 19.386719-19.933594 9.964844v64zm64-24v-54.109376l40-20 40 20v54.109376l-40 20zm128 88-40 20-40-20v-54.109376l40-20 40 20zm0 0"/></svg>