<?xml version="1.0" encoding="iso-8859-1"?>
<!-- Generator: Adobe Illustrator 19.0.0, SVG Export Plug-In . SVG Version: 6.00 Build 0)  -->
<svg xmlns="http://www.w3.org/2000/svg" xmlns:xlink="http://www.w3.org/1999/xlink" version="1.1" id="Layer_1" x="0px" y="0px" viewBox="0 0 504.921 504.921" style="enable-background:new 0 0 504.921 504.921;" xml:space="preserve" width="512" height="512">
<g>
	<path d="M212.675,289.788c-5.28-9.146-15.12-14.828-25.681-14.828h-81.206c-10.561,0-20.401,5.681-25.681,14.827l-40.603,70.326   c-5.28,9.146-5.28,20.509,0,29.654l40.603,70.326c5.28,9.146,15.121,14.827,25.681,14.827h81.206   c10.561,0,20.401-5.682,25.681-14.827l40.603-70.326c5.28-9.146,5.28-20.509,0-29.654L212.675,289.788z M240.288,382.268   l-40.603,70.327c-2.609,4.519-7.472,7.327-12.69,7.327h-81.206c-5.219,0-10.082-2.808-12.691-7.327l-40.603-70.326   c-2.609-4.52-2.609-10.135,0-14.654l40.603-70.326c2.609-4.52,7.472-7.327,12.691-7.327h81.206c5.219,0,10.082,2.808,12.691,7.327   l40.603,70.326C242.897,372.133,242.897,377.748,240.288,382.268z"/>
	<path d="M500.057,237.63l-57.92-100.319c-5.281-9.148-15.123-14.831-25.686-14.831h-115.84c-3.219,0-6.368,0.534-9.344,1.526   c-0.628-3.073-1.74-6.067-3.349-8.853L229.996,14.827C224.715,5.681,214.875,0,204.314,0H88.468   C77.907,0,68.067,5.681,62.787,14.827L4.863,115.153c-5.28,9.146-5.28,20.509,0,29.654l57.923,100.326   c1.609,2.787,3.646,5.246,5.993,7.327c-2.347,2.081-4.384,4.541-5.993,7.327L4.863,360.113c-5.28,9.146-5.28,20.509,0,29.655   l57.923,100.326c5.28,9.146,15.121,14.827,25.681,14.827h115.847c10.561,0,20.401-5.682,25.681-14.827l57.923-100.326   c1.609-2.787,2.721-5.781,3.349-8.854c2.976,0.992,6.125,1.526,9.343,1.526h47.659v30.313c0,21.381,17.395,38.776,38.776,38.776   s38.776-17.395,38.776-38.776v-31.834c6.802-2.265,12.646-6.956,16.314-13.309l17.858-30.93c2.071-3.587,0.842-8.174-2.745-10.245   c-3.588-2.072-8.174-0.843-10.245,2.745l-17.857,30.93c-0.878,1.521-2.012,2.843-3.325,3.936v-28.177l39.595-68.579   c5.28-9.147,5.28-20.512,0-29.66l-40.6-70.319c-5.281-9.148-15.123-14.831-25.686-14.831h-81.2   c-10.563,0-20.405,5.683-25.685,14.83l-40.601,70.32c-5.28,9.147-5.28,20.512,0,29.66l40.6,70.319   c5.28,9.148,15.123,14.831,25.686,14.831l30.339,0v15h-47.659c-5.221,0-10.085-2.809-12.695-7.33l-57.919-100.319   c-2.609-4.519-2.61-10.133-0.004-14.653c0.001-0.001,0.002-0.003,0.003-0.004l57.923-100.326c0,0,0-0.001,0.001-0.001   c2.61-4.519,7.473-7.326,12.692-7.326h115.84c5.221,0,10.084,2.809,12.695,7.33l57.92,100.319c2.61,4.521,2.61,10.14,0,14.661   l-22.902,39.667c-2.071,3.587-0.842,8.174,2.745,10.245c3.586,2.071,8.174,0.842,10.245-2.745l22.903-39.668   C505.338,258.142,505.338,246.778,500.057,237.63z M317.932,337.44c-5.221,0-10.085-2.809-12.695-7.33l-40.6-70.319   c-2.61-4.521-2.61-10.14,0-14.661l40.601-70.32c2.61-4.521,7.474-7.33,12.694-7.33h81.2c5.22,0,10.084,2.809,12.695,7.33   l40.6,70.319c2.61,4.521,2.61,10.14,0,14.661l-40.6,70.32c-0.711,1.231-1.033,2.58-1.004,3.904v78.739   c0,13.11-10.666,23.776-23.776,23.776s-23.776-10.666-23.776-23.776l0.001-67.813c0-1.989-0.79-3.896-2.197-5.303   c-1.406-1.407-3.314-2.197-5.303-2.197H317.932z M75.777,237.633L17.854,137.307c-2.609-4.52-2.609-10.135,0-14.654L75.777,22.327   C78.386,17.808,83.249,15,88.468,15h115.847c5.219,0,10.082,2.808,12.691,7.327l57.923,100.326   c2.609,4.519,2.609,10.132,0.002,14.651c-0.001,0.002-0.002,0.004-0.004,0.006l-57.92,100.32c-0.002,0.003-0.003,0.006-0.005,0.01   c-2.61,4.516-7.471,7.321-12.687,7.321H88.468C83.249,244.96,78.386,242.153,75.777,237.633z M274.929,382.268l-57.923,100.326   c-2.609,4.52-7.472,7.327-12.691,7.327H88.468c-5.219,0-10.082-2.808-12.691-7.327L17.854,382.268   c-2.609-4.52-2.609-10.135,0-14.655l57.923-100.326c2.609-4.52,7.472-7.327,12.691-7.327h115.847   c5.219,0,10.082,2.808,12.691,7.327l13.267,22.979l44.654,77.343c0.001,0.001,0.002,0.003,0.003,0.004   C277.538,372.133,277.538,377.749,274.929,382.268z"/>
	<path d="M212.675,215.133l40.603-70.326c5.28-9.146,5.28-20.509,0-29.654l-11.706-20.275c-2.071-3.588-6.658-4.816-10.245-2.745   c-3.587,2.071-4.816,6.658-2.745,10.245l11.706,20.275c2.609,4.52,2.609,10.135,0,14.654l-40.603,70.326   c-2.609,4.519-7.472,7.327-12.691,7.327h-81.205c-5.219,0-10.082-2.808-12.691-7.327l-40.603-70.326   c-2.609-4.52-2.609-10.135,0-14.654l40.603-70.326C95.707,47.808,100.57,45,105.789,45h81.205c5.219,0,10.082,2.808,12.691,7.327   l12.432,21.532c2.071,3.587,6.657,4.816,10.245,2.745c3.587-2.071,4.816-6.658,2.745-10.245l-12.432-21.532   C207.395,35.682,197.555,30,186.994,30h-81.205c-10.561,0-20.401,5.681-25.681,14.827l-40.603,70.326   c-5.28,9.146-5.28,20.509,0,29.654l40.603,70.326c5.28,9.146,15.121,14.827,25.681,14.827h81.205   C197.555,229.96,207.395,224.279,212.675,215.133z"/>
</g>















</svg>
