<?xml version="1.0" encoding="iso-8859-1"?>
<!-- Generator: Adobe Illustrator 19.0.0, SVG Export Plug-In . SVG Version: 6.00 Build 0)  -->
<svg xmlns="http://www.w3.org/2000/svg" xmlns:xlink="http://www.w3.org/1999/xlink" version="1.1" id="Layer_1" x="0px" y="0px" viewBox="0 0 512 512" style="enable-background:new 0 0 512 512;" xml:space="preserve" width="512" height="512">
<g>
	<polygon points="240.921,278.498 240.921,263.5 215.916,244.75 190.926,263.5 190.926,278.504 215.915,297.254  "/>
	<polygon points="200.916,323.493 175.926,304.75 150.921,323.5 150.921,338.5 175.926,357.25 200.916,338.507  "/>
	<polygon points="190.926,383.496 190.926,398.5 215.916,417.25 240.921,398.505 240.921,383.502 215.915,364.746  "/>
	<polygon points="320.916,278.504 320.916,263.5 295.926,244.75 270.921,263.495 270.921,278.498 295.928,297.254  "/>
	<rect x="90.921" width="330" height="61"/>
	<path d="M113.348,139.589c32.402-21.592,74.238-21.592,106.641,0c22.295,14.854,51.064,14.854,73.359,0   c32.402-21.592,74.238-21.592,106.641,0c22.295,14.854,51.064,14.854,73.359,0c3.625-2.419,7.449-4.244,11.254-6.119L442.132,91   H69.71l-42.312,42.312c4.235,2.007,8.611,3.622,12.59,6.277C62.284,154.442,91.053,154.442,113.348,139.589z"/>
	<polygon points="280.926,323.5 255.921,304.75 230.916,323.5 230.916,338.5 255.921,357.25 280.926,338.5  "/>
	<path d="M383.348,164.55c-22.295-14.854-51.064-14.854-73.359,0c-16.201,10.796-34.761,16.201-53.32,16.201   s-37.119-5.405-53.32-16.201c-22.295-14.854-51.064-14.854-73.359,0c-19.818,13.206-43.156,18.237-65.715,15.289   c0.002,0,0.004,0.002,0.005,0.002C20.704,272.613,30.006,387.135,92.708,504.09l4.233,7.91h317.959l4.248-7.925   c80.651-150.712,58.35-261.936,29.511-324.207C426.226,182.703,403.048,177.677,383.348,164.55z M390.921,353.5l-40.005,30.002   V413.5l-54.99,41.25l-40.009-30.004l-40.001,30.004l-54.99-41.25v-29.998L120.921,353.5v-45l40-30.002V248.5l54.995-41.25   l40.009,30.004l40.001-30.004l53.995,41.25v29.998l41,30.002V353.5z"/>
	<polygon points="270.921,383.502 270.921,398.5 295.926,417.25 320.916,398.5 320.916,383.496 295.928,364.746  "/>
	<polygon points="310.926,323.493 310.926,338.507 335.916,357.25 360.921,338.5 360.921,323.5 335.916,304.75  "/>
</g>















</svg>
