<svg height="512pt" viewBox="-18 0 512 512" width="512pt" xmlns="http://www.w3.org/2000/svg"><path d="m475.558594 346.128906-39.667969-68.128906h-79.117187l-27.367188 47h-56.898438l-39.695312 68.75 39.644531 69.25h56.070313l28.171875 49h79.265625l39.597656-68.871094-28.0625-48.191406zm-95.789063-28.128906h33.125l16.453125 28.253906-16.527344 28.746094h-32.976562l-16.527344-28.746094zm-100.820312 75.835938 16.648437-28.835938h32.355469l16.960937 29.5-16.386718 28.5h-32.878906zm133.871093 78.164062h-32.976562l-16.527344-28.746094 16.453125-28.253906h33.125l16.453125 28.253906zm-273.867187 0c-50.5625-48.0625-95.941406-99.28125-95.941406-149.996094 0-25.222656 5.410156-50.964844 16.089843-76.777344 8.996094 4.476563 18.136719 6.773438 27.230469 6.773438 20.796875 0 41.324219-11.957031 61.019531-35.535156 1.824219-2.183594 4.113282-2.511719 5.316407-2.511719 1.199219 0 3.488281.328125 5.3125 2.511719 19.695312 23.578125 40.222656 35.535156 61.019531 35.535156s41.324219-11.957031 61.019531-35.535156c1.824219-2.183594 4.113281-2.511719 5.3125-2.511719 1.203125 0 3.492188.328125 5.316407 2.511719 19.695312 23.578125 40.222656 35.535156 61.019531 35.535156 20.792969 0 41.320312-11.957031 61.019531-35.535156.753906-.902344 2.789062-1.464844 5.3125-1.464844h20v-20c0-33.378906-14.496094-63.554688-41.921875-87.257812-10.265625-8.871094-20.429687-15.203126-28.078125-19.332032v-28.410156c0-33.085938-26.914062-60-60-60h-178c-33.085938 0-60 26.914062-60 60v27.996094c-7.683594 3.914062-17.742188 9.910156-27.890625 18.460937-27.546875 23.21875-42.109375 53.839844-42.109375 88.542969v20h20c2.21875 0 4.203125.792969 5.316406 2.121094.53125.640625 1.066406 1.265625 1.605469 1.886718-15.871094 34.257813-23.914063 68.847657-23.914063 102.996094 0 67.835938 54.933594 128.796875 114.296876 184.570313l5.773437 5.425781h129.292969l-22.898438-40zm-8.953125-432h178c11.027344 0 20 8.972656 20 20v20h-218v-20c0-11.027344 8.972656-20 20-20zm-33.738281 80h245.359375c6.226562 2.652344 46.019531 21.023438 54.707031 59.703125-5.542969 2.65625-10.398437 6.398437-14.34375 11.121094-11.40625 13.65625-22.171875 21.175781-30.316406 21.175781s-18.914063-7.519531-30.320313-21.179688c-8.953125-10.71875-22.082031-16.867187-36.015625-16.867187-13.933593 0-27.058593 6.148437-36.015625 16.867187-11.40625 13.660157-22.171875 21.179688-30.316406 21.179688s-18.910156-7.519531-30.320312-21.179688c-8.953126-10.71875-22.078126-16.867187-36.011719-16.867187-13.933594 0-27.0625 6.148437-36.015625 16.867187-11.40625 13.660157-22.175782 21.179688-30.320313 21.179688-8.375 0-19.425781-7.480469-30.316406-20.519531-4.03125-4.828125-8.992187-8.707031-14.558594-11.484375 8.453125-42.125 50.90625-58.570313 54.804688-59.996094zm0 0"/></svg>