<svg height="512pt" viewBox="0 0 512.0015 512" width="512pt" xmlns="http://www.w3.org/2000/svg"><path d="m466.292969 175.667969 43.570312-72.617188c2.851563-4.75 2.851563-10.683593 0-15.433593l-48.199219-80.335938c-2.710937-4.515625-7.59375-7.28125-12.863281-7.28125h-96.398437c-5.269532 0-10.152344 2.765625-12.863282 7.28125l-43.832031 73.050781h-87.90625c-5.269531 0-10.152343 2.765625-12.863281 7.285157l-43.832031 73.050781h-87.90625c-5.269531 0-10.148438 2.765625-12.859375 7.28125l-48.203125 80.332031c-2.847657 4.753906-2.847657 10.6875 0 15.4375l43.570312 72.613281-43.570312 72.617188c-2.847657 4.75-2.847657 10.683593 0 15.4375l48.203125 80.332031c2.710937 4.519531 7.59375 7.28125 12.859375 7.28125h96.402343c5.269532 0 10.148438-2.765625 12.859376-7.28125l43.832031-73.050781h87.90625c5.269531 0 10.152343-2.765625 12.863281-7.28125l43.832031-73.054688h87.90625c5.269531 0 10.152344-2.761719 12.863281-7.28125l48.199219-80.332031c2.851563-4.75 2.851563-10.683594 0-15.4375zm-105.398438-145.667969h79.414063l39.199218 65.332031-39.199218 65.335938h-79.414063l-39.199219-65.335938zm-144.601562 80.332031h79.414062l39.199219 65.335938-39.199219 65.332031h-79.414062l-39.199219-65.332031zm-144.597657 80.335938h79.410157l39.203125 65.332031-39.203125 65.332031h-79.410157l-39.203124-65.332031zm79.410157 291.332031h-79.410157l-39.199218-65.332031 39.199218-65.335938h79.410157l39.203125 65.335938zm144.601562-80.332031h-79.414062l-39.199219-65.335938 39.199219-65.332031h79.414062l39.199219 65.332031zm144.601563-80.335938h-79.414063l-39.199219-65.332031 39.199219-65.332031h79.414063l39.199218 65.332031zm0 0"/></svg>