<?xml version="1.0" encoding="iso-8859-1"?>
<!-- Generator: Adobe Illustrator 17.1.0, SVG Export Plug-In . SVG Version: 6.00 Build 0)  -->
<!DOCTYPE svg PUBLIC "-//W3C//DTD SVG 1.1//EN" "http://www.w3.org/Graphics/SVG/1.1/DTD/svg11.dtd">
<svg version="1.1" id="Capa_1" xmlns="http://www.w3.org/2000/svg" xmlns:xlink="http://www.w3.org/1999/xlink" x="0px" y="0px"
	 viewBox="0 0 199.522 199.522" style="enable-background:new 0 0 199.522 199.522;" xml:space="preserve">
<path d="M174.319,99.761l24.198-41.913c1.34-2.32,1.34-5.18,0-7.5L172.154,4.685c-1.34-2.32-3.815-3.75-6.495-3.75h-52.728
	c-2.68,0-5.155,1.43-6.495,3.75L82.238,46.598H33.863c-2.68,0-5.155,1.43-6.495,3.75L1.005,96.011c-1.34,2.32-1.34,5.18,0,7.5
	l26.363,45.663c1.34,2.32,3.815,3.75,6.495,3.75h48.375l24.198,41.913c1.34,2.32,3.815,3.75,6.495,3.75h52.728
	c2.68,0,5.155-1.43,6.495-3.75l26.363-45.663c1.34-2.32,1.34-5.18,0-7.5L174.319,99.761z M76.798,76.442H45.542L32.079,99.761
	l15.628,27.068c2.071,3.587,0.842,8.174-2.745,10.245c-1.181,0.682-2.471,1.006-3.743,1.006c-2.592,0-5.113-1.345-6.502-3.751
	l-17.793-30.818c-1.34-2.32-1.34-5.18,0-7.5l17.793-30.818c1.34-2.32,3.815-3.75,6.495-3.75h35.586c4.142,0,7.5,3.358,7.5,7.5
	S80.94,76.442,76.798,76.442z M123.805,168.646c2.071,3.587,0.842,8.174-2.745,10.245c-1.181,0.682-2.471,1.006-3.743,1.006
	c-2.592,0-5.112-1.345-6.502-3.751l-15.801-27.367c-1.34-2.32-1.34-5.18,0-7.5l15.801-27.367c2.07-3.588,6.659-4.817,10.245-2.745
	c3.587,2.071,4.816,6.658,2.745,10.245l-13.636,23.617L123.805,168.646z M154.29,29.935h-28.945l-14.472,25.067
	c-1.389,2.406-3.91,3.751-6.502,3.751c-1.272,0-2.562-0.324-3.743-1.006c-3.587-2.071-4.816-6.658-2.745-10.245l16.637-28.817
	c1.34-2.32,3.815-3.75,6.495-3.75h33.275c4.143,0,7.5,3.358,7.5,7.5S158.432,29.935,154.29,29.935z"/>
<g>
</g>
<g>
</g>
<g>
</g>
<g>
</g>
<g>
</g>
<g>
</g>
<g>
</g>
<g>
</g>
<g>
</g>
<g>
</g>
<g>
</g>
<g>
</g>
<g>
</g>
<g>
</g>
<g>
</g>
</svg>
