<?xml version="1.0" encoding="iso-8859-1"?>
<!-- Generator: Adobe Illustrator 19.0.0, SVG Export Plug-In . SVG Version: 6.00 Build 0)  -->
<svg version="1.1" id="Capa_1" xmlns="http://www.w3.org/2000/svg" xmlns:xlink="http://www.w3.org/1999/xlink" x="0px" y="0px"
	 viewBox="0 0 481.329 481.329" style="enable-background:new 0 0 481.329 481.329;" xml:space="preserve">
<path style="fill:#FFA900;" d="M432.665,9.328l40,24v48l-40,24l-40-24v-48L432.665,9.328z"/>
<path style="fill:#E47700;" d="M352.665,9.328l40,24v48l-40,24l-40-24v-48L352.665,9.328z"/>
<path style="fill:#FBBF00;" d="M392.665,81.328l40,24v48l-40,24l-40-24v-48L392.665,81.328z"/>
<path style="fill:#5B3514;" d="M8.665,456.36c0,9.371,7.597,16.968,16.968,16.968c4.501,0.001,8.817-1.786,12-4.968l43.032-43.032
	l-24-24L13.633,444.36C10.451,447.543,8.664,451.859,8.665,456.36z"/>
<path style="fill:#763A02;" d="M48.665,338.464v62.864c0,17.673,14.327,32,32,32h62.864c0.36,0,0.72-0.048,1.08-0.056
	l-95.888-95.888C48.713,337.744,48.665,338.128,48.665,338.464z"/>
<path style="fill:#FBBF00;" d="M72.097,281.896c-14.721,14.746-23.107,34.654-23.376,55.488l95.888,95.888
	c20.834-0.269,40.742-8.655,55.488-23.376l8.568-8.568l-128-128L72.097,281.896z"/>
<path style="fill:#763A02;" d="M112.665,241.328l-32,32l128,128l32-32c5.38-5.42,10.052-11.501,13.904-18.096L130.761,227.424
	C124.166,231.276,118.086,235.948,112.665,241.328z"/>
<path style="fill:#FBBF00;" d="M240.665,241.328c-29.182-29.146-74.383-34.865-109.904-13.904l123.808,123.808
	C275.53,315.711,269.812,270.51,240.665,241.328L240.665,241.328z"/>
<path style="fill:#81D1FE;" d="M192.665,289.328l87.272,80.56c10.663,9.844,16.728,23.696,16.728,38.208v13.232
	c0,28.719-23.281,52-52,52s-52-23.281-52-52V289.328z"/>
<path style="fill:#08B7FC;" d="M192.665,289.328l-88.8-88.8c-9.764-9.748-23.003-15.216-36.8-15.2h-6.4c-28.719,0-52,23.281-52,52
	s23.281,52,52,52H192.665z"/>
<path style="fill:#763A02;" d="M264.665,153.328L264.665,153.328c35.346,0,64,28.654,64,64l0,0c0,35.346-28.654,64-64,64l0,0
	c-35.346,0-64-28.654-64-64l0,0C200.665,181.982,229.319,153.328,264.665,153.328z"/>
<path d="M480.665,28.8l-48-28.8l-40,24l-40-24l-48,28.8v57.064l40,24v48l48,28.8l48-28.8v-48l40-24V28.8z M320.665,37.856l32-19.2
	l32,19.2v38.936l-16,9.6l-16,9.6l-32-19.2V37.856z M424.665,148.8l-32,19.2l-32-19.2v-38.944l16-9.6l16-9.6l16,9.6l16,9.6V148.8z
	 M464.665,76.8l-32,19.2l-16-9.6l-16-9.6V37.856l32-19.2l32,19.2V76.8z"/>
<path d="M280.665,147.184V73.328h-16v72c-36.249,0.058-66.813,27.032-71.376,62.992c-20.812-3.47-42.189-0.214-61.024,9.296
	l-22.72-22.72c-11.217-11.292-26.484-17.629-42.4-17.6h-6.48c-33.137,0.157-59.872,27.148-59.714,60.284
	c0.139,29.337,21.472,54.271,50.434,58.948c-7.003,12.871-10.687,27.284-10.72,41.936v62.864c0.066,1.425,0.211,2.846,0.432,4.256
	l-33.12,33.12c-9.751,9.751-9.751,25.561,0,35.312c9.751,9.751,25.561,9.751,35.312,0l0,0l33.12-33.12
	c1.41,0.221,2.831,0.366,4.256,0.432h62.864c14.652-0.033,29.066-3.717,41.936-10.72c5.387,32.696,36.259,54.835,68.956,49.448
	c28.805-4.746,50.014-29.536,50.244-58.728v-13.232c-0.02-16.742-7.015-32.718-19.304-44.088l-19.2-17.744
	c8.285-17.994,10.915-38.079,7.544-57.6c35.932-4.576,62.884-35.113,62.96-71.336h72v-16h-73.856
	C328.615,174.403,307.59,153.379,280.665,147.184L280.665,147.184z M193.049,224.528c0,0.184,0.056,0.352,0.08,0.536
	c0.08,0.8,0.216,1.52,0.32,2.28c0.208,1.496,0.424,2.984,0.712,4.44c0.168,0.856,0.392,1.696,0.592,2.544
	c0.32,1.336,0.648,2.656,1.04,3.96c0.256,0.864,0.544,1.712,0.8,2.568c0.424,1.248,0.88,2.48,1.368,3.696
	c0.336,0.837,0.688,1.667,1.056,2.488c0.536,1.192,1.104,2.4,1.704,3.52c0.408,0.8,0.8,1.6,1.24,2.336
	c0.656,1.168,1.368,2.296,2.088,3.424c0.448,0.696,0.88,1.408,1.352,2.088c0.8,1.192,1.712,2.344,2.608,3.48
	c0.432,0.552,0.84,1.128,1.296,1.672c1.352,1.6,2.76,3.2,4.248,4.672l0.088,0.096c1.512,1.512,3.104,2.944,4.752,4.32
	c0.552,0.456,1.144,0.872,1.704,1.32c1.128,0.88,2.256,1.76,3.44,2.576c0.704,0.488,1.432,0.928,2.152,1.392
	c1.096,0.704,2.2,1.392,3.344,2.04c0.8,0.448,1.6,0.864,2.4,1.28c1.128,0.584,2.264,1.136,3.432,1.664
	c0.848,0.379,1.704,0.741,2.568,1.088c1.184,0.48,2.4,0.92,3.608,1.336c0.88,0.304,1.752,0.6,2.648,0.864
	c1.272,0.384,2.568,0.704,3.864,1.016c0.872,0.208,1.744,0.432,2.632,0.608c1.424,0.288,2.88,0.496,4.336,0.696
	c0.8,0.112,1.6,0.256,2.4,0.336l0.528,0.072c3.145,15.33,1.846,31.239-3.744,45.856l-55.528-51.256l-53.96-53.968
	C159.621,223.027,176.635,221.271,193.049,224.528L193.049,224.528z M75.337,424.68l-18.024-18.024
	c-0.416-1.746-0.633-3.533-0.648-5.328V356.64l68.688,68.688H80.665C78.871,425.313,77.083,425.096,75.337,424.68z M56.985,334.336
	c0.745-13.267,5.132-26.072,12.68-37.008h23.688l91.312,91.312v23.688c-10.937,7.545-23.742,11.93-37.008,12.672L56.985,334.336z
	 M184.665,366.016l-68.688-68.688h68.688V366.016z M16.665,237.328c0.026-24.29,19.71-43.974,44-44h6.464
	c11.684-0.037,22.896,4.604,31.136,12.888l26.864,26.864l48.224,48.248H60.665C36.376,281.302,16.692,261.618,16.665,237.328
	L16.665,237.328z M31.977,462.704c-3.504,3.504-9.184,3.504-12.688,0c-3.504-3.504-3.504-9.184,0-12.688l27.552-27.552
	c3.217,5.133,7.555,9.471,12.688,12.688L31.977,462.704z M288.665,408.096v13.232c0,24.301-19.699,44-44,44s-44-19.699-44-44V307.6
	l50.296,46.4l23.544,21.728C283.528,384.074,288.66,395.805,288.665,408.096z M264.841,273.328h-0.856
	c-30.47-0.175-55.132-24.826-55.32-55.296v-0.704c0.035-30.913,25.087-55.965,56-56v16h16v-13.64
	c18.071,5.431,32.209,19.569,37.64,37.64h-13.64v16h16C320.666,248.187,295.701,273.231,264.841,273.328z"/>
<g>
</g>
<g>
</g>
<g>
</g>
<g>
</g>
<g>
</g>
<g>
</g>
<g>
</g>
<g>
</g>
<g>
</g>
<g>
</g>
<g>
</g>
<g>
</g>
<g>
</g>
<g>
</g>
<g>
</g>
</svg>
