<?xml version="1.0" encoding="iso-8859-1"?>
<!-- Generator: Adobe Illustrator 19.0.0, SVG Export Plug-In . SVG Version: 6.00 Build 0)  -->
<svg version="1.1" id="Capa_1" xmlns="http://www.w3.org/2000/svg" xmlns:xlink="http://www.w3.org/1999/xlink" x="0px" y="0px"
	 viewBox="0 0 512 512" style="enable-background:new 0 0 512 512;" xml:space="preserve">
<g>
	<path style="fill:#57545C;" d="M15,512c-3.839,0-7.678-1.464-10.606-4.394c-5.858-5.858-5.858-15.355,0-21.213l44.427-44.426
		c5.858-5.858,15.356-5.858,21.213,0c5.858,5.858,5.858,15.355,0,21.213l-44.427,44.426C22.678,510.535,18.838,512,15,512z"/>
	<path style="fill:#57545C;" d="M229.132,425.147c-3.839,0-7.678-1.464-10.606-4.393L91.246,293.475
		c-5.858-5.858-5.858-15.355,0-21.213c5.857-5.858,15.355-5.858,21.213,0l127.279,127.279c5.858,5.858,5.858,15.355,0,21.213
		C236.81,423.683,232.971,425.147,229.132,425.147z"/>
	<path style="fill:#57545C;" d="M183.387,464.255c-3.839,0-7.678-1.464-10.606-4.393L52.139,339.22
		c-5.858-5.858-5.858-15.355,0-21.213s15.356-5.858,21.213,0l120.642,120.642c5.858,5.858,5.858,15.355,0,21.213
		C191.065,462.79,187.225,464.255,183.387,464.255z"/>
	<path style="fill:#57545C;" d="M306.315,206.178c-2.523,0-5.081-0.637-7.429-1.979c-7.192-4.11-9.691-13.273-5.581-20.466
		l40.672-71.175c4.11-7.193,13.274-9.691,20.466-5.582c7.192,4.11,9.691,13.273,5.581,20.466l-40.672,71.175
		C316.583,203.463,311.522,206.178,306.315,206.178z"/>
	<path style="fill:#57545C;" d="M327.278,229.932c-6.721,0-12.837-4.55-14.54-11.366c-2.01-8.037,2.877-16.181,10.914-18.19
		l79.711-19.928c8.032-2.01,16.181,2.877,18.189,10.914c2.01,8.037-2.877,16.181-10.914,18.19l-79.711,19.928
		C329.706,229.785,328.482,229.932,327.278,229.932z"/>
</g>
<path style="fill:#FF9900;" d="M377,300c-2.299,0-4.597-0.528-6.708-1.583l-36.79-18.395c-7.41-3.705-10.413-12.715-6.708-20.125
	c3.705-7.409,12.714-10.413,20.124-6.708L377,268.23l105-52.5V84.271l-105-52.5l-105,52.5V171.9c0,8.284-6.716,15-15,15
	s-15-6.716-15-15V75c0-5.682,3.21-10.875,8.292-13.417l120-60c4.223-2.111,9.193-2.111,13.416,0l120,60
	C508.79,64.125,512,69.318,512,75v150c0,5.682-3.21,10.875-8.292,13.417l-120,60C381.597,299.472,379.299,300,377,300z"/>
<g>
	<path style="fill:#FFDB28;" d="M296.067,354.337c-5.063,0-10.005-2.564-12.829-7.206c-4.306-7.077-2.06-16.305,5.018-20.611
		c20.464-12.45,33.787-32.814,36.553-55.87c2.764-23.037-5.047-45.646-21.43-62.028c-16.383-16.383-38.992-24.193-62.028-21.429
		c-23.056,2.766-43.419,16.089-55.869,36.552c-4.304,7.077-13.529,9.325-20.611,5.018c-7.077-4.306-9.323-13.534-5.018-20.611
		c17.267-28.38,45.669-46.876,77.925-50.746c32.24-3.869,63.88,7.068,86.814,30.002c22.936,22.935,33.871,54.578,30.003,86.815
		c-3.869,32.256-22.366,60.659-50.745,77.926C301.413,353.631,298.723,354.337,296.067,354.337z"/>
	<path style="fill:#FFDB28;" d="M118.318,481.512c-22.267,0-44.712-5.078-65.599-15.521c-2.903-1.452-5.257-3.805-6.708-6.708
		c-28.27-56.537-17.231-124.553,27.465-169.25l42.015-42.015c5.857-5.858,15.355-5.858,21.213,0s5.858,15.355,0,21.213
		l-42.015,42.015c-34.359,34.36-43.713,86.044-24.001,130.068c44.024,19.712,95.708,10.358,130.067-24.002l42.015-42.014
		c5.857-5.857,15.355-5.859,21.213,0c5.858,5.858,5.858,15.355,0,21.213l-42.015,42.014
		C193.784,466.708,156.321,481.512,118.318,481.512z"/>
</g>
<path style="fill:#88D9F5;" d="M392.531,394.583c-4.594-22.384-20.003-40.814-41.219-49.3l-131.854-52.741L166.717,160.69
	c-8.486-21.216-26.916-36.625-49.3-41.22c-22.379-4.593-45.393,2.309-61.551,18.467c-15.176,15.176-22.173,36.07-19.195,57.324
	c2.977,21.255,15.443,39.423,34.204,49.846c0,0,0,0,0.001,0l126.012,70.006l70.007,126.012l0,0
	c10.422,18.761,28.59,31.229,49.845,34.205c3.216,0.45,6.424,0.673,9.604,0.673c17.842,0,34.841-6.988,47.721-19.868
	C390.222,439.976,397.125,416.966,392.531,394.583z M85.445,218.881L85.445,218.881c-10.456-5.809-17.404-15.936-19.063-27.782
	s2.24-23.491,10.698-31.95c9.141-9.14,21.645-12.891,34.307-10.293c12.661,2.599,22.677,10.973,27.478,22.974l39.459,98.649
	L85.445,218.881z M352.852,434.921c-8.459,8.459-20.103,12.36-31.951,10.699c-11.847-1.659-21.973-8.608-27.781-19.064l0,0
	l-51.599-92.877l98.648,39.459c12.002,4.801,20.375,14.816,22.975,27.478C365.742,413.277,361.991,425.781,352.852,434.921z"/>
<g>
</g>
<g>
</g>
<g>
</g>
<g>
</g>
<g>
</g>
<g>
</g>
<g>
</g>
<g>
</g>
<g>
</g>
<g>
</g>
<g>
</g>
<g>
</g>
<g>
</g>
<g>
</g>
<g>
</g>
</svg>
