<?xml version="1.0" encoding="iso-8859-1"?>
<!-- Generator: Adobe Illustrator 19.0.0, SVG Export Plug-In . SVG Version: 6.00 Build 0)  -->
<svg version="1.1" id="Capa_1" xmlns="http://www.w3.org/2000/svg" xmlns:xlink="http://www.w3.org/1999/xlink" x="0px" y="0px"
	 viewBox="0 0 512 512" style="enable-background:new 0 0 512 512;" xml:space="preserve">
<g>
	<g>
		<path d="M256,0C114.833,0,0,114.844,0,256s114.833,256,256,256s256-114.844,256-256S397.167,0,256,0z M129.438,165.969
			l37.333-64.635C168.667,98.031,172.188,96,176,96h74.667c3.792,0,7.292,2.01,9.208,5.292l37.333,64
			c1.938,3.323,1.938,7.427,0,10.75l-37.333,64c-1.917,3.281-5.417,5.292-9.208,5.292H176c-3.771,0-7.271-2-9.188-5.25
			l-37.333-63.365C127.521,173.406,127.5,169.292,129.438,165.969z M297.208,346.708l-37.333,64
			c-1.917,3.281-5.417,5.292-9.208,5.292H176c-3.771,0-7.271-2-9.188-5.25l-37.333-63.365c-1.958-3.313-1.979-7.427-0.042-10.75
			L166.771,272c1.896-3.302,5.417-5.333,9.229-5.333h74.667c3.792,0,7.292,2.01,9.208,5.292l37.333,64
			C299.146,339.281,299.146,343.385,297.208,346.708z M409.208,325.375c-1.917,3.281-5.417,5.292-9.208,5.292h-74.667
			c-3.771,0-7.271-2-9.188-5.25l-37.333-63.365c-1.958-3.313-1.979-7.427-0.042-10.75l37.333-64.635
			c1.896-3.302,5.417-5.333,9.229-5.333H400c3.792,0,7.292,2.01,9.208,5.292l37.333,64c1.938,3.323,1.938,7.427,0,10.75
			L409.208,325.375z"/>
	</g>
</g>
<g>
</g>
<g>
</g>
<g>
</g>
<g>
</g>
<g>
</g>
<g>
</g>
<g>
</g>
<g>
</g>
<g>
</g>
<g>
</g>
<g>
</g>
<g>
</g>
<g>
</g>
<g>
</g>
<g>
</g>
</svg>
