<?xml version="1.0" encoding="iso-8859-1"?>
<!-- Generator: Adobe Illustrator 19.0.0, SVG Export Plug-In . SVG Version: 6.00 Build 0)  -->
<svg version="1.1" id="Capa_1" xmlns="http://www.w3.org/2000/svg" xmlns:xlink="http://www.w3.org/1999/xlink" x="0px" y="0px"
	 viewBox="0 0 511.998 511.998" style="enable-background:new 0 0 511.998 511.998;" xml:space="preserve">
<g>
	<path style="fill:#F95346;" d="M381.003,80.931H130.994c-19.587,0-35.465-15.878-35.465-35.465l0,0
		C95.529,25.878,111.408,10,130.994,10h250.009c19.587,0,35.465,15.878,35.465,35.465l0,0
		C416.469,65.053,400.59,80.931,381.003,80.931z"/>
	<path style="fill:#F95346;" d="M393.5,78.659c-3.887,1.464-8.097,2.271-12.497,2.271H130.994c-4.4,0-8.609-0.807-12.497-2.271
		L60.33,142.157c6.46,3.379,11.661,6.682,16.351,10.313c6.64,5.141,11.952,8.863,19.973,10.726
		c8.049-1.852,13.391-6.118,20.052-11.269c10.736-8.322,24.096-18.754,49.3-18.754c25.207,0,38.567,10.303,49.313,18.612
		c9.126,7.073,15.725,12.166,30.335,12.166c14.62,0,21.211-5.121,30.348-12.194c10.736-8.312,24.096-18.674,49.3-18.674
		c25.214,0,38.577,10.352,49.313,18.664c9.136,7.073,15.736,12.173,30.345,12.173c14.62,0,21.219-5.1,30.355-12.173
		c4.688-3.634,9.881-6.21,16.351-9.59L393.5,78.659z"/>
</g>
<path style="fill:#FFDC9F;" d="M404.961,163.92c-14.61,0-21.209-5.1-30.345-12.173c-10.736-8.312-24.099-18.664-49.313-18.664
	c-25.204,0-38.565,10.362-49.3,18.674c-9.136,7.073-15.728,12.194-30.348,12.194c-14.61,0-21.209-5.092-30.335-12.166
	c-10.746-8.309-24.107-18.612-49.313-18.612c-25.204,0-38.564,10.432-49.3,18.754c-6.661,5.152-12.003,9.417-20.052,11.269
	c-2.965-0.689-5.559-1.633-7.988-2.807c-0.018,48.406-0.034,290.978-0.034,290.978c0,27.921,22.717,50.632,50.638,50.632h233.464
	c27.914,0,50.632-22.711,50.632-50.632c0,0-0.017-244.168-0.036-291.448C418.44,162.415,412.88,163.92,404.961,163.92z"/>
<path style="fill:#87635C;" d="M128.651,221.218c-0.008,56.438-0.015,180.807-0.019,230.149c0,5.863,4.772,10.632,10.638,10.632
	h233.464c5.863,0,10.632-4.77,10.632-10.629c-0.004-49.344-0.012-173.714-0.02-230.153H128.651V221.218z"/>
<polygon style="fill:#FFAD61;" points="178.473,352.222 178.473,396.982 217.236,419.361 255.999,396.982 255.999,352.222 
	217.236,329.842 "/>
<polygon style="fill:#FBC85B;" points="255.999,352.222 255.999,396.982 294.762,419.361 333.525,396.982 333.525,352.222 
	294.762,329.842 "/>
<polygon style="fill:#F5842B;" points="217.236,285.05 217.214,329.83 256,352.24 294.775,329.835 294.762,285.05 255.999,262.67 
	"/>
<path d="M360.899,55.46c-0.65,0-1.31-0.06-1.95-0.19c-0.64-0.13-1.27-0.32-1.87-0.57s-1.18-0.56-1.73-0.92
	c-0.54-0.36-1.06-0.78-1.52-1.24c-0.46-0.46-0.88-0.98-1.24-1.52s-0.67-1.13-0.92-1.73s-0.44-1.23-0.57-1.87
	c-0.13-0.65-0.2-1.3-0.2-1.95c0-0.66,0.07-1.31,0.2-1.96c0.13-0.64,0.32-1.27,0.57-1.87s0.56-1.18,0.92-1.73
	c0.36-0.54,0.78-1.05,1.24-1.52c0.46-0.46,0.98-0.87,1.52-1.24c0.55-0.36,1.13-0.67,1.73-0.92s1.23-0.44,1.87-0.57
	c1.29-0.26,2.62-0.26,3.91,0c0.64,0.13,1.26,0.32,1.87,0.57c0.6,0.25,1.18,0.56,1.72,0.92c0.55,0.37,1.06,0.78,1.53,1.24
	c0.46,0.47,0.87,0.98,1.24,1.52c0.36,0.55,0.67,1.13,0.92,1.73s0.44,1.23,0.57,1.87c0.13,0.65,0.19,1.3,0.19,1.96
	c0,0.65-0.06,1.3-0.19,1.95c-0.13,0.64-0.32,1.27-0.57,1.87s-0.56,1.18-0.92,1.73c-0.37,0.54-0.78,1.06-1.24,1.52
	c-0.47,0.46-0.98,0.88-1.53,1.24c-0.54,0.36-1.12,0.67-1.72,0.92c-0.61,0.25-1.23,0.44-1.87,0.57
	C362.209,55.4,361.559,55.46,360.899,55.46z"/>
<path d="M459.042,135.403L409.253,81.05c10.479-8.336,17.216-21.185,17.216-35.585C426.469,20.396,406.073,0,381.003,0H130.995
	c-25.07,0-45.466,20.396-45.466,45.465c0,14.4,6.737,27.249,17.216,35.585l-49.789,54.352c-2.097,2.29-3.012,5.424-2.476,8.482
	s2.463,5.694,5.214,7.133c5.839,3.055,10.563,6.029,14.865,9.36c2.691,2.083,5.324,4.057,8.105,5.832
	c-0.018,59.372-0.032,285.157-0.032,285.157c0,33.433,27.202,60.632,60.638,60.632h233.464c33.433,0,60.632-27.2,60.632-60.633
	c0,0-0.016-227.337-0.034-285.761c2.803-1.857,5.44-3.887,8.112-5.956c3.529-2.736,7.719-4.916,13.024-7.676l1.829-0.953
	c2.754-1.438,4.682-4.074,5.22-7.133C462.055,140.829,461.14,137.693,459.042,135.403z M130.995,20h250.009
	c14.042,0,25.465,11.424,25.465,25.465c0,10.921-6.912,20.256-16.59,23.867c-0.623,0.232-1.253,0.435-1.889,0.616
	c-0.113,0.032-0.226,0.066-0.34,0.097c-0.631,0.171-1.268,0.316-1.909,0.437c-0.122,0.023-0.245,0.045-0.368,0.066
	c-0.651,0.113-1.307,0.204-1.967,0.266c-0.099,0.009-0.198,0.015-0.297,0.023c-0.698,0.057-1.399,0.094-2.105,0.094H130.995
	c-0.706,0-1.407-0.037-2.105-0.094c-0.099-0.008-0.199-0.013-0.297-0.023c-0.66-0.062-1.316-0.153-1.967-0.266
	c-0.123-0.021-0.246-0.043-0.368-0.066c-0.642-0.121-1.278-0.266-1.909-0.437c-0.114-0.031-0.227-0.064-0.34-0.097
	c-0.636-0.182-1.266-0.385-1.889-0.616c-6.534-2.438-11.805-7.484-14.541-13.867h218.296c5.523,0,10-4.477,10-10s-4.477-10-10-10
	H107.578C111.472,26.381,120.501,20,130.995,20z M413.334,173.369c0.017,68.422,0.032,277.999,0.032,277.999
	c0,22.404-18.228,40.632-40.632,40.632H139.27c-22.408,0-40.638-18.228-40.638-40.632c0,0,0.014-210.35,0.03-278.375
	c0.078-0.016,0.156-0.033,0.234-0.051c9.957-2.291,16.465-7.328,23.354-12.661l0.705-0.546
	c10.015-7.763,21.365-16.563,43.051-16.563c21.828,0,33.18,8.778,43.188,16.517c9.463,7.333,18.401,14.261,36.461,14.261
	c18.016,0,26.958-6.923,36.5-14.31c10.024-7.762,21.387-16.559,43.148-16.559c21.787,0,33.153,8.799,43.192,16.571
	c9.476,7.336,18.427,14.266,36.467,14.266c1.007,0,1.988-0.029,2.957-0.072c0.206-0.009,0.411-0.019,0.614-0.03
	C410.181,173.73,411.784,173.586,413.334,173.369z M429.195,143.84c-4.001,3.098-7.084,5.474-10.345,7.145
	c-0.022,0.011-0.044,0.017-0.066,0.028c-2.482,1.267-5.02,2.081-7.952,2.516c-0.019,0.003-0.038,0.007-0.057,0.01
	c-0.532,0.078-1.082,0.14-1.642,0.194c-0.065,0.006-0.125,0.016-0.191,0.021c-0.52,0.047-1.061,0.078-1.609,0.105
	c-0.111,0.005-0.212,0.016-0.325,0.021c-0.661,0.027-1.342,0.041-2.048,0.041c-11.203,0-15.554-3.369-24.235-10.089
	c-11.31-8.756-26.8-20.748-55.424-20.748c-28.599,0-44.085,11.99-55.465,20.801c-8.658,6.703-13.004,10.067-24.183,10.067
	c-11.217,0-15.559-3.365-24.218-10.076c-11.298-8.737-26.773-20.702-55.431-20.702c-28.53,0-44.005,11.997-55.304,20.756
	l-0.693,0.536c-1.706,1.32-3.239,2.5-4.702,3.56c-0.199,0.144-0.405,0.299-0.602,0.439c-0.096,0.068-0.189,0.128-0.285,0.195
	c-0.448,0.314-0.893,0.624-1.332,0.912c-0.008,0.005-0.015,0.009-0.023,0.014c-0.524,0.344-1.044,0.67-1.564,0.976
	c-0.094,0.055-0.189,0.102-0.283,0.156c-0.434,0.25-0.868,0.495-1.306,0.719c-0.02,0.01-0.041,0.018-0.061,0.029
	c-0.513,0.26-1.029,0.504-1.555,0.727c-0.144,0.061-0.295,0.109-0.44,0.167c-0.406,0.163-0.812,0.327-1.232,0.468
	c-0.601-0.192-1.191-0.405-1.773-0.636c-0.157-0.063-0.311-0.136-0.467-0.201c-0.397-0.166-0.793-0.337-1.185-0.523
	c-3.143-1.5-6.23-3.677-10.398-6.902c-2.154-1.668-4.377-3.254-6.726-4.793l45.617-49.797c0.02,0.004,0.039,0.007,0.059,0.011
	c0.527,0.109,1.06,0.199,1.593,0.29c0.228,0.039,0.454,0.087,0.683,0.122c0.541,0.084,1.088,0.147,1.635,0.211
	c0.222,0.026,0.442,0.062,0.665,0.085c0.583,0.06,1.172,0.098,1.761,0.136c0.188,0.012,0.374,0.033,0.562,0.043
	c0.776,0.04,1.558,0.06,2.344,0.06h250.009c0.786,0,1.568-0.02,2.344-0.06c0.188-0.01,0.374-0.031,0.562-0.043
	c0.589-0.037,1.178-0.076,1.761-0.136c0.223-0.023,0.443-0.059,0.665-0.085c0.547-0.064,1.094-0.128,1.635-0.211
	c0.229-0.035,0.455-0.083,0.683-0.122c0.533-0.091,1.066-0.181,1.593-0.29c0.019-0.004,0.039-0.007,0.059-0.011l45.336,49.492
	C433.426,140.795,431.293,142.213,429.195,143.84z"/>
<path d="M393.346,221.217c-0.001-5.523-4.478-9.999-10-9.999H128.651c-5.522,0-9.999,4.476-10,9.999
	c-0.006,41.657-0.011,120.322-0.016,178.51l-0.003,51.641c0,11.376,9.258,20.632,20.638,20.632h233.464
	c11.376,0,20.632-9.254,20.632-20.63l-0.004-57.691C393.357,336.193,393.352,261.447,393.346,221.217z M372.734,452H139.27
	c-0.346,0-0.638-0.29-0.638-0.631l0.003-51.64c0.004-53.813,0.009-125.14,0.014-168.51h234.698
	c0.006,41.764,0.011,109.45,0.015,162.462l0.004,57.691C373.366,451.706,373.071,452,372.734,452z"/>
<path d="M338.524,343.562l-33.751-19.486l-0.012-39.028c-0.001-3.572-1.907-6.872-5-8.657l-38.762-22.381
	c-3.094-1.786-6.906-1.786-10,0l-38.763,22.38c-3.092,1.785-4.998,5.085-5,8.655l-0.019,39.035l-33.743,19.482
	c-3.094,1.786-5,5.087-5,8.66v44.759c0,3.573,1.906,6.874,5,8.66l38.763,22.38c1.547,0.893,3.273,1.34,5,1.34s3.453-0.447,5-1.34
	l33.762-19.493l33.763,19.493c1.547,0.893,3.273,1.34,5,1.34s3.453-0.447,5-1.34l38.763-22.38c3.094-1.786,5-5.087,5-8.66v-44.759
	C343.524,348.649,341.619,345.348,338.524,343.562z M255.999,274.217l28.765,16.607l0.01,33.237l-28.775,16.614l-28.782-16.617
	l0.016-33.233L255.999,274.217z M217.236,407.815l-28.763-16.607v-33.212l28.761-16.605l28.765,16.62v33.197L217.236,407.815z
	 M323.524,391.208l-28.763,16.607l-28.762-16.607v-33.196l28.765-16.621l28.76,16.605L323.524,391.208L323.524,391.208z"/>
<g>
</g>
<g>
</g>
<g>
</g>
<g>
</g>
<g>
</g>
<g>
</g>
<g>
</g>
<g>
</g>
<g>
</g>
<g>
</g>
<g>
</g>
<g>
</g>
<g>
</g>
<g>
</g>
<g>
</g>
</svg>
