<?xml version="1.0" encoding="iso-8859-1"?>
<!-- Generator: Adobe Illustrator 19.0.0, SVG Export Plug-In . SVG Version: 6.00 Build 0)  -->
<svg version="1.1" id="Capa_1" xmlns="http://www.w3.org/2000/svg" xmlns:xlink="http://www.w3.org/1999/xlink" x="0px" y="0px"
	 viewBox="0 0 496 496" style="enable-background:new 0 0 496 496;" xml:space="preserve">
<g>
	<g>
		<g>
			<path d="M399.192,229.816C399.68,222.576,400,215.28,400,208c0-80.912-24.352-125.48-39.376-145.328
				C374.064,58.88,384,46.64,384,32c0-17.648-14.352-32-32-32H48C30.352,0,16,14.352,16,32c0,14.64,9.936,26.88,23.376,30.672
				C24.352,82.52,0,127.088,0,208c0,90.488,36.384,145.856,65.616,190.344C86.208,429.688,104,456.76,104,488v8h192v-8
				c0-2.608,0.2-5.224,0.448-7.848C315.432,490.232,337.048,496,360,496c74.992,0,136-61.008,136-136
				C496,298.632,455.128,246.688,399.192,229.816z M88,16h128v72c0,8.816-7.184,16-16,16c-17.648,0-32,14.352-32,32v152
				c0,8.824-7.184,16-16,16c-8.824,0-16-7.176-16-16v-72c0-17.648-14.352-32-32-32c-8.824,0-16-7.176-16-16V16z M32,32
				c0-8.816,7.176-16,16-16h24v32H48C39.176,48,32,40.816,32,32z M280.328,480h-160.64c-2.552-32.4-20.344-59.464-40.696-90.44
				C49.472,344.624,16,293.696,16,208c0-93.568,34.648-135.144,43.224-144H72v104c0,17.648,14.352,32,32,32c8.816,0,16,7.176,16,16
				v72c0,17.648,14.352,32,32,32s32-14.352,32-32V136c0-8.824,7.176-16,16-16c17.648,0,32-14.352,32-32V64h72V48h-72V16h120
				c8.816,0,16,7.184,16,16s-7.184,16-16,16h-32v16h20.776C349.352,72.856,384,114.432,384,208c0,6.056-0.248,12.128-0.6,18.16
				c-7.616-1.328-15.408-2.16-23.4-2.16c-74.992,0-136,61.008-136,136c0,45.768,22.792,86.232,57.544,110.896
				C281.016,473.952,280.576,476.992,280.328,480z M360,480c-66.176,0-120-53.832-120-120s53.824-120,120-120
				c66.168,0,120,53.832,120,120S426.168,480,360,480z"/>
			<path d="M457.944,383.504c-3.568-13.072-11.888-26.632-23.44-38.176c-11.296-11.296-23.968-19.016-35.944-22.736
				c0.944-3.44,1.44-7,1.44-10.592c0-10.968-4.448-20.912-11.624-28.144l10.28-15.424l-13.312-8.872l-10.288,15.432
				C370.4,273.096,365.328,272,360,272s-10.4,1.096-15.056,2.992l-10.288-15.432l-13.312,8.872l10.28,15.424
				C324.448,291.088,320,301.032,320,312c0,3.656,0.504,7.272,1.472,10.752c-11.808,3.784-24.256,11.464-35.376,22.576
				c-11.544,11.544-19.864,25.112-23.44,38.176c-3.992,14.64-1.696,27.2,6.472,35.36c5.536,5.544,13.112,8.384,21.976,8.384
				c4.192,0,8.68-0.632,13.384-1.912c7.248-1.984,14.616-5.544,21.744-10.184C333.36,435.632,345.712,448,360,448
				c14.472,0,26.792-12.496,33.872-33.208c7.28,4.816,14.824,8.52,22.256,10.544c4.696,1.28,9.176,1.912,13.376,1.912
				c8.864,0,16.44-2.832,21.976-8.384C459.64,410.712,461.936,398.152,457.944,383.504z M360,288c13.232,0,24,10.768,24,24
				c0,2.8-0.656,5.504-1.592,8.104c-8.464,0.128-15.944,2.76-21.44,8.256c-0.248,0.248-0.432,0.528-0.664,0.776
				c-0.232-0.248-0.424-0.536-0.664-0.776c-5.624-5.624-13.336-8.264-22.048-8.264C336.656,317.496,336,314.8,336,312
				C336,298.768,346.768,288,360,288z M300.28,409.896c-8.744,2.368-15.96,1.528-19.832-2.344
				c-3.864-3.864-4.728-11.104-2.344-19.832c2.808-10.272,9.84-21.608,19.312-31.08c13.976-13.976,29.36-20.624,40.104-20.624
				c4.624,0,8.392,1.24,10.816,3.656c8.024,8.032,3.032,30.912-16.968,50.912C321.888,400.056,310.552,407.096,300.28,409.896z
				 M360,432c-7.792,0-15.832-11.112-20.312-27.44c0.984-0.912,2.024-1.704,2.984-2.664c7.512-7.504,13.408-15.624,17.632-23.744
				c4.232,8.12,10.128,16.232,17.64,23.744c0.8,0.8,1.672,1.456,2.496,2.224C376,420.552,367.824,432,360,432z M440.16,407.552
				c-3.864,3.872-11.096,4.712-19.832,2.344c-10.272-2.808-21.6-9.84-31.072-19.312c-20.008-20-25-42.88-16.976-50.912
				c2.424-2.416,6.184-3.648,10.816-3.648c10.736,0,26.12,6.648,40.096,20.616c9.472,9.472,16.512,20.808,19.312,31.08
				C444.888,396.456,444.032,403.688,440.16,407.552z"/>
			<rect x="120" y="40" width="16" height="16"/>
			<rect x="120" y="72" width="16" height="48"/>
		</g>
	</g>
</g>
<g>
</g>
<g>
</g>
<g>
</g>
<g>
</g>
<g>
</g>
<g>
</g>
<g>
</g>
<g>
</g>
<g>
</g>
<g>
</g>
<g>
</g>
<g>
</g>
<g>
</g>
<g>
</g>
<g>
</g>
</svg>
