<?xml version="1.0" encoding="iso-8859-1"?>
<!-- Generator: Adobe Illustrator 19.0.0, SVG Export Plug-In . SVG Version: 6.00 Build 0)  -->
<svg version="1.1" id="Capa_1" xmlns="http://www.w3.org/2000/svg" xmlns:xlink="http://www.w3.org/1999/xlink" x="0px" y="0px"
	 viewBox="0 0 512 512" style="enable-background:new 0 0 512 512;" xml:space="preserve">
<g>
	<g>
		<path d="M310.423,201.577c-27.929-27.94-69.243-37.8-113.721-28.863l142.571,142.571
			C348.201,270.807,338.339,229.504,310.423,201.577z"/>
	</g>
</g>
<g>
	<g>
		<path d="M40.54,313.535c-10.272,50.208,3.073,106.469,9.034,127.679l-45.18,45.18c-5.859,5.859-5.859,15.352,0,21.211
			s15.352,5.86,21.211,0l45.136-45.136c41.098,11.563,85.547,17.194,127.189,8.456L40.54,313.535z"/>
	</g>
</g>
<g>
	<g>
		<path d="M195.442,341.171l-24.514-24.514c-24.747,15.368-55.496,12.77-82.557,2.287l105.088,105.088
			C182.696,396.696,179.885,366.352,195.442,341.171z"/>
	</g>
</g>
<g>
	<g>
		<path d="M193.808,212.243c12.299,30.934,12.242,60.897-1.597,83.276l24.34,24.34c25.11-15.594,55.211-12.714,83.1-1.774
			L193.808,212.243z"/>
	</g>
</g>
<g>
	<g>
		<path d="M453.919,165.542c-4.365-14.912-14.824-27.51-28.667-34.556c-12.468-6.346-26.869-7.522-40.294-3.946
			c3.574-13.425,2.39-27.838-3.944-40.292c-7.046-13.843-19.644-24.302-34.556-28.667c-7.925-2.344-16.289,2.256-18.618,10.181
			c-2.329,7.954,2.227,16.289,10.181,18.618c7.119,2.08,12.891,6.87,16.245,13.477c5.945,11.656,1.047,20.253,0.52,23.357
			c-34.347-19.534-78.747-15.034-108.011,14.23c-0.954,0.954-1.732,2.043-2.639,3.036c34.012,3.391,64.77,16.659,87.497,39.386
			c22.936,22.947,36.368,53.34,39.745,87.186c32.388-29.94,36.535-75.807,16.904-110.336c3.001-0.507,11.287-5.627,23.361,0.518
			c6.606,3.354,11.396,9.126,13.477,16.245c2.347,7.993,10.719,12.484,18.618,10.181
			C451.692,181.831,456.248,173.496,453.919,165.542z"/>
	</g>
</g>
<g>
	<g>
		<path d="M342.386,383.939c-31.666-31.666-88.883-61.501-116.675-33.71c-28.998,28.997,2.183,88.92,31.831,118.568
			c31.666,31.667,88.868,59.609,116.66,31.817C397.596,477.22,383.328,424.882,342.386,383.939z"/>
	</g>
</g>
<g>
	<g>
		<path d="M127.924,169.614c-26.953-26.953-59.077-43.037-85.957-43.037c-12.949,0-23.276,3.779-30.718,11.221
			c-23.394,23.394-9.111,75.718,31.816,116.66c31.667,31.683,90.906,59.63,118.706,31.831
			C185.165,262.895,168.867,210.557,127.924,169.614z"/>
	</g>
</g>
<g>
	<g>
		<path d="M503.709,61.582l-120-60c-4.219-2.109-9.199-2.109-13.418,0l-120,60C245.208,64.131,242,69.316,242,75v28.222
			c16.723-11.675,36.105-18.439,56.587-20.447c-1.743-7.348-1.805-15.194,0.469-22.95c5.596-19.058,23.35-32.358,43.184-32.358
			c20.74,0,50.832,16.818,65.508,45.674c3.794,7.458,6.026,15.45,7.524,23.569c8.185,1.512,16.199,3.781,23.589,7.544
			c21.196,10.781,37.178,30.044,43.857,52.866c3.369,11.528,2.051,23.687-3.706,34.233c-9.031,16.503-28.004,27.028-49.763,21.802
			c-4.88,50.598-35.519,73.561-37.63,76.562l-11.607,9.573c7.139-1.5-12.017,6.302,123.697-60.872
			C508.792,235.869,512,230.684,512,225V75C512,69.316,508.792,64.131,503.709,61.582z"/>
	</g>
</g>
<g>
</g>
<g>
</g>
<g>
</g>
<g>
</g>
<g>
</g>
<g>
</g>
<g>
</g>
<g>
</g>
<g>
</g>
<g>
</g>
<g>
</g>
<g>
</g>
<g>
</g>
<g>
</g>
<g>
</g>
</svg>
