<svg height="512pt" viewBox="0 -9 512 512" width="512pt" xmlns="http://www.w3.org/2000/svg"><path d="m508.21875 335.691406-79.035156-45.625v-91.257812c0-2.699219-1.445313-5.195313-3.78125-6.546875l-79.03125-45.628907v-34.976562c0-4.175781-3.386719-7.558594-7.5625-7.558594-4.171875 0-7.558594 3.382813-7.558594 7.558594v34.976562l-75.253906 43.445313-75.25-43.445313v-86.894531l75.25-43.449219 75.253906 43.449219v21.675781c0 4.175782 3.386719 7.5625 7.558594 7.5625 4.175781 0 7.5625-3.386718 7.5625-7.5625v-26.042968c0-2.699219-1.441406-5.195313-3.78125-6.546875l-82.8125-47.8125c-2.339844-1.347657-5.222656-1.347657-7.558594 0l-82.8125 47.8125c-2.339844 1.351562-3.78125 3.847656-3.78125 6.546875v91.261718l-79.03125 45.628907c-2.339844 1.351562-3.78125 3.847656-3.78125 6.546875v91.257812l-79.03125 45.628906c-2.339844 1.351563-3.78125 3.847657-3.78125 6.546876v95.625c0 2.699218 1.441406 5.199218 3.78125 6.546874l82.8125 47.8125c1.167969.675782 2.472656 1.011719 3.777344 1.011719 1.308594 0 2.613281-.335937 3.78125-1.011719l79.03125-45.628906 79.03125 45.628906c1.167968.675782 2.476562 1.015626 3.78125 1.015626 1.304687 0 2.609375-.339844 3.777344-1.011719l59.375-34.273438c6.296874 5.660157 12.894531 8.519531 19.664062 8.519531 6.773438 0 13.367188-2.859374 19.667969-8.519531l59.359375 34.269531c1.171875.675782 2.476562 1.015626 3.78125 1.015626 1.304687 0 2.609375-.339844 3.78125-1.015626l82.816406-47.808593c2.339844-1.351563 3.78125-3.847657 3.78125-6.546875v-95.628906c0-2.703126-1.441406-5.199219-3.78125-6.550782zm-142.503906 84.113282h-53.800782c-1.460937-3.300782-2.863281-6.792969-4.191406-10.425782 13.140625-3.355468 24.203125-11.777344 31.085938-23.003906 6.898437 11.246094 17.996094 19.648438 31.097656 23.003906-1.332031 3.636719-2.730469 7.125-4.191406 10.425782zm-72.402344-96.472657c.042969 0 37.9375-.042969 37.9375-.042969v36.285157c0 .019531.003906.039062.003906.0625-.03125 19.121093-14.96875 34.996093-34.085937 36.15625-.722657.046875-1.464844.074219-2.203125.074219-9.695313 0-18.804688-3.773438-25.660156-10.628907-6.855469-6.851562-10.628907-15.964843-10.628907-25.660156 0-19.46875 15.214844-35.390625 34.636719-36.246094zm45.496094-31.292969c10.421875 0 19.28125 6.761719 22.445312 16.125h-22.445312c-.023438 0-.050782.003907-.074219.003907h-22.371094c3.164063-9.367188 12.027344-16.128907 22.445313-16.128907zm43.851562 103.824219c-19.988281 0-36.253906-16.246093-36.289062-36.226562 0-.019531.003906-.039063.003906-.058594v-36.292969h36.285156c20.007813 0 36.289063 16.277344 36.289063 36.289063s-16.28125 36.289062-36.289063 36.289062zm31.402344-105.796875-31.347656 18.101563c-.019532 0-.039063-.003907-.054688-.003907h-5.785156c-1.804688-9.101562-6.804688-17.0625-13.773438-22.671874 2.503907-21.167969 9.039063-35.339844 17.777344-38.257813 3.960938-1.320313 6.097656-5.601563 4.777344-9.5625s-5.605469-6.101563-9.5625-4.78125c-17.003906 5.671875-24.269531 26.082031-27.261719 45.34375-3.199219-.855469-6.554687-1.316406-10.019531-1.316406s-6.824219.460937-10.023438 1.316406c-2.992187-19.261719-10.257812-39.671875-27.261718-45.34375-3.964844-1.320313-8.242188.820313-9.566406 4.78125-1.320313 3.960937.820312 8.242187 4.78125 9.5625 8.738281 2.914063 15.273437 17.089844 17.777343 38.257813-6.972656 5.609374-11.96875 13.574218-13.773437 22.675781h-5.78125c-.011719 0-.03125 0-.046875 0l-31.359375-18.101563v-86.890625l75.253906-43.445312 75.25 43.445312zm-323.691406 186.882813-75.25-43.445313v-86.894531l75.25-43.449219 23.996094 13.855469c3.613281 2.085937 8.238281.847656 10.324218-2.769531 2.089844-3.613282.851563-8.238282-2.765625-10.324219l-23.992187-13.855469v-86.890625l75.25-43.449219 37.628906 21.722657 37.621094 21.722656v86.894531l-75.25 43.445313-21.273438-12.28125c-3.617187-2.085938-8.238281-.847657-10.328125 2.769531-2.085937 3.613281-.847656 8.238281 2.765625 10.324219l21.277344 12.285156v86.894531zm165.625.003906-75.25-43.445313v-86.898437l75.25-43.449219 17.082031 9.863282c-17.523437 8.207031-29.523437 25.980468-29.523437 46.554687 0 13.734375 5.347656 26.644531 15.058593 36.351563 9.058594 9.0625 20.902344 14.316406 33.601563 14.984374 3.46875 10.054688 9.121094 23.945313 16.941406 35.351563zm82.816406-25.597656c-4.78125 0-9.558594-4.277344-12.726562-7.863281-2.101563-2.382813-4.203126-5.277344-6.265626-8.570313h37.984376c-2.058594 3.292969-4.160157 6.1875-6.261719 8.570313-3.167969 3.589843-7.945313 7.863281-12.730469 7.863281zm158.066406-17.851563-75.257812 43.445313-53.152344-30.683594c7.824219-11.40625 13.476562-25.300781 16.941406-35.359375 27.074219-1.433594 48.65625-23.910156 48.65625-51.332031 0-20.542969-12.113281-38.300781-29.570312-46.527344l17.125-9.886719 75.257812 43.445313zm0 0"/></svg>