<?xml version="1.0" encoding="iso-8859-1"?>
<!-- Generator: Adobe Illustrator 19.0.0, SVG Export Plug-In . SVG Version: 6.00 Build 0)  -->
<svg version="1.1" id="Capa_1" xmlns="http://www.w3.org/2000/svg" xmlns:xlink="http://www.w3.org/1999/xlink" x="0px" y="0px"
	 viewBox="0 0 512 512" style="enable-background:new 0 0 512 512;" xml:space="preserve">
<g>
	<g>
		<path d="M188.001,0H69.337c-5.522,0-10,4.477-10,10v62.828L4.914,105.025c-3.042,1.8-4.908,5.072-4.908,8.606v68.511
			c0,3.535,1.866,6.807,4.908,8.607l59.332,35.1c1.57,0.929,3.331,1.394,5.091,1.394c1.761,0,3.521-0.464,5.092-1.393l59.333-35.1
			c3.042-1.8,4.908-5.072,4.908-8.607v-62.829l54.424-32.196c3.042-1.799,4.908-5.072,4.908-8.606V10
			C198.001,4.477,193.523,0,188.001,0z M118.669,176.438l-49.333,29.185l-49.332-29.185v-57.105l49.332-29.185l49.333,29.185
			V176.438z M178.001,72.807l-49.349,29.194L79.336,72.827V20h98.665V72.807z"/>
	</g>
</g>
<g>
	<g>
		<path d="M507.086,105.025l-54.424-32.197V10c0-5.523-4.478-10-10-10H323.998c-5.522,0-10,4.477-10,10V78.51
			c0,3.535,1.866,6.807,4.908,8.606l54.424,32.196v62.829c0,3.535,1.866,6.807,4.908,8.607l59.333,35.1
			c1.57,0.929,3.331,1.393,5.092,1.393s3.521-0.464,5.092-1.394l59.332-35.1c3.042-1.8,4.908-5.072,4.908-8.607v-68.51
			C511.994,110.097,510.128,106.825,507.086,105.025z M333.998,72.808V20h0h98.665v52.828l-49.316,29.175L333.998,72.808z
			 M491.994,176.438l-49.332,29.185l-49.333-29.185v-57.105l49.333-29.185l49.332,29.185V176.438z"/>
	</g>
</g>
<g>
	<g>
		<path d="M143.404,314.926c-3.095-4.574-9.314-5.771-13.886-2.677c-1.086,0.735-26.852,18.205-49.337,36.228
			c-4.309,3.455-5.002,9.748-1.548,14.057c1.976,2.465,4.879,3.747,7.809,3.747c2.194,0,4.403-0.719,6.249-2.198
			c21.839-17.506,47.777-35.094,48.037-35.27C145.301,325.717,146.499,319.5,143.404,314.926z"/>
	</g>
</g>
<g>
	<g>
		<path d="M72.474,367.692c-0.019-0.019-0.06-0.061-0.08-0.081c-3.896-3.894-10.191-3.894-14.103-0.018
			c-3.909,3.878-3.938,10.198-0.076,14.124c0.02,0.02,0.061,0.062,0.08,0.081c1.95,1.949,4.502,2.923,7.055,2.923
			c2.547,0,5.095-0.969,7.048-2.905C76.307,377.938,76.336,371.618,72.474,367.692z"/>
	</g>
</g>
<g>
	<g>
		<path d="M479.054,348.078c-25.872-25.875-61.933-54.054-98.931-77.314c-28.894-18.165-54.596-31.086-72.981-36.846
			c1.203-4.428,1.857-9.08,1.857-13.883c0-20.187-11.347-37.768-27.995-46.715c2.244-7.112,8.9-12.284,16.744-12.284
			c5.522,0,10-4.477,10-10s-4.478-10-10-10c-16.802,0-31.06,11.092-35.842,26.336c-1.94-0.216-3.908-0.337-5.905-0.337
			c-1.997,0-3.965,0.121-5.905,0.337c-4.782-15.246-19.041-26.336-35.842-26.336c-5.522,0-10,4.477-10,10s4.478,10,10,10
			c7.844,0,14.5,5.172,16.744,12.284c-16.649,8.947-27.995,26.528-27.995,46.715c0,4.805,0.654,9.458,1.858,13.887
			c-18.386,5.761-44.082,18.682-72.97,36.842c-36.999,23.26-73.058,51.439-98.932,77.312
			c-12.266,12.265-19.023,28.584-19.028,45.952c-0.005,17.377,6.753,33.707,19.028,45.982c4.905,4.904,10.409,8.848,16.274,11.855
			c1.145,15.545,7.744,30.027,18.825,41.107C80.325,505.242,96.647,512,114.017,512c0.007,0,0.014,0,0.02,0
			c17.368-0.005,33.687-6.763,45.951-19.028c9.017-9.016,27.615-29.304,41.52-45.401c10.675,22.22,23.617,42.181,34.895,53.565
			c7.335,7.404,13.562,10.853,19.597,10.853c7.654,0,15.855-5.669,25.81-17.842c7.981-9.759,16.583-23.291,24.221-38.099
			c1.459-2.83,2.865-5.677,4.228-8.535c13.082,15.377,31.956,35.65,41.764,45.459c12.674,12.673,29.32,19.01,45.967,19.01
			c16.647,0,33.294-6.336,45.968-19.01c11.095-11.095,17.676-25.561,18.818-41.104c5.867-3.007,11.373-6.952,16.279-11.858
			c12.275-12.275,19.033-28.605,19.028-45.982C498.076,376.661,491.318,360.341,479.054,348.078z M256,187.035
			c18.196,0,32.999,14.804,32.999,32.999c0,18.196-14.804,32.999-32.999,32.999S223,238.23,223,220.034
			C223,201.839,237.804,187.035,256,187.035z M234.756,268.575c6.509,2.86,13.692,4.459,21.244,4.459
			c7.561,0,14.751-1.603,21.265-4.468c6.821,6.525,13.895,14.381,20.099,23.462h-82.564v-0.001
			C220.975,282.93,227.996,275.08,234.756,268.575z M47.1,425.867c-8.497-8.496-13.174-19.802-13.171-31.833
			c0.004-12.027,4.681-23.326,13.171-31.815c50.256-50.256,131.029-100.569,166.729-110.131c1.304,1.712,2.712,3.34,4.211,4.879
			c-20.253,20.343-41.552,51.217-41.94,91.321c-0.007,0.751-0.001,1.501,0.003,2.252c-16.634,22.631-46.603,56.577-65.354,75.327
			C93.202,443.414,64.649,443.416,47.1,425.867z M145.847,478.83c-8.489,8.49-19.788,13.167-31.815,13.171c-0.005,0-0.008,0-0.014,0
			c-12.026,0-23.328-4.678-31.82-13.171c-5.706-5.706-9.697-12.719-11.692-20.37c2.794,0.362,5.606,0.558,8.419,0.558
			c16.647,0,33.294-6.336,45.968-19.01c14.943-14.944,36.854-39.327,53.977-60.449c3.1,17.499,8.392,33.946,13.751,47.603
			C179.043,443.389,156.082,468.596,145.847,478.83z M256.01,491.667c-3.202-1.845-9.661-8.401-17.471-19.645h34.857
			C265.617,483.353,259.238,489.831,256.01,491.667z M290.036,443.365c-1.511,3.034-3.013,5.914-4.501,8.659h-59.277
			c-1.586-2.897-3.185-5.941-4.787-9.15c-1.797-3.601-3.493-7.222-5.116-10.85h53.061c5.522,0,10-4.477,10-10s-4.478-10-10-10
			h-61.099c-2.396-6.742-4.445-13.43-6.161-20h107.385C305.119,408.805,298.517,426.336,290.036,443.365z M315.837,351.263
			c-0.076,0.515-0.124,1.039-0.118,1.576l-0.003,0.721c0.001,0.246,0.012,0.492,0.031,0.736c-0.278,5.673-0.935,11.612-1.922,17.731
			h-115.86c-0.928-5.98-1.521-11.774-1.747-17.314c0.046-0.382,0.077-0.766,0.079-1.153l-0.003-0.758
			c0.002-0.261-0.016-0.518-0.033-0.775h69.745c5.522,0,10-4.477,10-10s-4.478-10-10-10h-68.27
			c1.341-7.06,3.452-13.731,6.104-20.001h104.523c4.717,11.156,7.663,23.56,7.536,37.101
			C315.893,349.829,315.855,350.553,315.837,351.263z M429.815,478.83c-17.549,17.55-46.102,17.548-63.65,0
			c-11.352-11.351-35.135-37.048-46.999-51.916c6.285-16.167,10.935-32.334,13.717-47.675c17.161,21.198,39.22,45.753,54.239,60.771
			c12.674,12.673,29.32,19.01,45.967,19.01c2.813,0,5.625-0.197,8.42-0.559C439.514,466.108,435.529,473.116,429.815,478.83z
			 M464.911,425.868c-17.549,17.546-46.101,17.549-63.649,0c-18.761-18.761-48.756-52.736-65.386-75.371
			c0.007-0.393,0.02-0.79,0.023-1.181c0.379-40.432-21.254-71.742-41.915-92.374c1.49-1.533,2.891-3.153,4.188-4.856
			c35.695,9.555,116.479,59.872,166.738,110.133c8.49,8.489,13.167,19.789,13.171,31.815
			C478.085,406.065,473.408,417.371,464.911,425.868z"/>
	</g>
</g>
<g>
	<g>
		<path d="M453.778,367.692c-0.019-0.019-0.06-0.061-0.08-0.081c-3.896-3.894-10.191-3.894-14.103-0.018
			c-3.909,3.878-3.938,10.198-0.076,14.124c0.02,0.02,0.061,0.062,0.08,0.081c1.95,1.949,4.502,2.923,7.055,2.923
			c2.547,0,5.095-0.969,7.048-2.905C457.611,377.938,457.64,371.618,453.778,367.692z"/>
	</g>
</g>
<g>
	<g>
		<path d="M431.83,348.479c-22.484-18.024-48.251-35.493-49.337-36.228c-4.571-3.094-10.79-1.897-13.886,2.677
			s-1.897,10.791,2.677,13.887c0.259,0.175,26.198,17.764,48.036,35.27c1.846,1.479,4.055,2.198,6.249,2.198
			c2.93,0,5.833-1.282,7.809-3.746C436.832,358.226,436.139,351.932,431.83,348.479z"/>
	</g>
</g>
<g>
	<g>
		<path d="M297.245,332.026h-0.11c-5.522,0-10,4.477-10,10s4.478,10,10,10h0.11c5.522,0,10-4.477,10-10
			S302.766,332.026,297.245,332.026z"/>
	</g>
</g>
<g>
	<g>
		<path d="M237.465,197.869h-0.132c-5.522,0-10,4.477-10,10s4.478,10,10,10h0.132c5.522,0,10-4.477,10-10
			S242.987,197.869,237.465,197.869z"/>
	</g>
</g>
<g>
	<g>
		<path d="M274.667,197.869h-0.132c-5.522,0-10,4.477-10,10s4.477,10,10,10h0.132c5.522,0,10-4.477,10-10
			S280.189,197.869,274.667,197.869z"/>
	</g>
</g>
<g>
</g>
<g>
</g>
<g>
</g>
<g>
</g>
<g>
</g>
<g>
</g>
<g>
</g>
<g>
</g>
<g>
</g>
<g>
</g>
<g>
</g>
<g>
</g>
<g>
</g>
<g>
</g>
<g>
</g>
</svg>
