<?xml version="1.0" encoding="iso-8859-1"?>
<!-- Generator: Adobe Illustrator 19.0.0, SVG Export Plug-In . SVG Version: 6.00 Build 0)  -->
<svg version="1.1" id="Capa_1" xmlns="http://www.w3.org/2000/svg" xmlns:xlink="http://www.w3.org/1999/xlink" x="0px" y="0px"
	 viewBox="0 0 481.329 481.329" style="enable-background:new 0 0 481.329 481.329;" xml:space="preserve">
<g>
	<g>
		<path d="M432.665,0l-40,24l-40-24l-48,28.8v57.064l40,24v48l48,28.8l48-28.8v-48l40-24V28.8L432.665,0z M320.665,76.792V37.856
			l32-19.2l32,19.2v38.936l-16,9.6l-16,9.6L320.665,76.792z M424.665,148.8l-32,19.2l-32-19.2v-38.944l16-9.6l16-9.6l16,9.6l16,9.6
			V148.8z M464.665,76.8l-32,19.2l-16-9.6l-16-9.6V37.856l32-19.2l32,19.2V76.8z"/>
	</g>
</g>
<g>
	<g>
		<path d="M334.809,201.328c-6.195-26.925-27.219-47.949-54.144-54.144V73.328h-16v72c-36.249,0.058-66.813,27.032-71.376,62.992
			c-20.812-3.47-42.189-0.214-61.024,9.296l-22.72-22.72c-11.217-11.292-26.484-17.629-42.4-17.6h-6.48
			c-33.137,0.157-59.872,27.148-59.714,60.284c0.139,29.337,21.472,54.271,50.434,58.948c-7.003,12.87-10.687,27.284-10.72,41.936
			v62.864c0.066,1.425,0.211,2.846,0.432,4.256l-33.12,33.12c-9.751,9.751-9.751,25.561,0,35.312c9.751,9.751,25.561,9.751,35.312,0
			l33.12-33.12c1.41,0.221,2.831,0.366,4.256,0.432h62.864c14.652-0.033,29.065-3.717,41.936-10.72
			c5.387,32.696,36.26,54.835,68.956,49.448c28.805-4.746,50.014-29.536,50.244-58.728v-13.232
			c-0.02-16.742-7.015-32.718-19.304-44.088l-19.2-17.744c8.285-17.994,10.915-38.079,7.544-57.6
			c35.932-4.576,62.884-35.113,62.96-71.336h72v-16H334.809z M16.665,237.328c0.026-24.29,19.71-43.974,44-44h6.464
			c11.684-0.037,22.896,4.604,31.136,12.888l26.864,26.864l48.224,48.248H60.665C36.376,281.302,16.692,261.618,16.665,237.328z
			 M31.977,462.704c-3.504,3.504-9.184,3.504-12.688,0c-3.504-3.504-3.504-9.184,0-12.688l27.552-27.552
			c3.217,5.133,7.555,9.471,12.688,12.688L31.977,462.704z M80.665,425.328c-1.795-0.015-3.582-0.232-5.328-0.648l-18.024-18.024
			c-0.416-1.746-0.633-3.533-0.648-5.328V356.64l68.688,68.688H80.665z M184.665,412.328c-10.937,7.545-23.742,11.93-37.008,12.672
			l-90.672-90.664c0.745-13.267,5.132-26.072,12.68-37.008h23.688l91.312,91.312V412.328z M184.665,366.016l-68.688-68.688h68.688
			V366.016z M144.217,229.568c15.403-6.541,32.418-8.297,48.832-5.04c0,0.184,0.056,0.352,0.08,0.536c0.08,0.8,0.216,1.52,0.32,2.28
			c0.208,1.496,0.424,2.984,0.712,4.44c0.168,0.856,0.392,1.696,0.592,2.544c0.32,1.336,0.648,2.656,1.04,3.96
			c0.256,0.864,0.544,1.712,0.8,2.568c0.424,1.248,0.88,2.48,1.368,3.696c0.336,0.837,0.688,1.667,1.056,2.488
			c0.536,1.192,1.104,2.4,1.704,3.52c0.408,0.8,0.8,1.6,1.24,2.336c0.656,1.168,1.368,2.296,2.088,3.424
			c0.448,0.696,0.88,1.408,1.352,2.088c0.8,1.192,1.712,2.344,2.608,3.48c0.432,0.552,0.84,1.128,1.296,1.672
			c1.352,1.6,2.76,3.2,4.248,4.672l0.088,0.096c1.512,1.512,3.104,2.944,4.752,4.32c0.552,0.456,1.144,0.872,1.704,1.32
			c1.128,0.88,2.256,1.76,3.44,2.576c0.704,0.488,1.432,0.928,2.152,1.392c1.096,0.704,2.2,1.392,3.344,2.04
			c0.8,0.448,1.6,0.864,2.4,1.28c1.128,0.584,2.264,1.136,3.432,1.664c0.848,0.379,1.704,0.741,2.568,1.088
			c1.184,0.48,2.4,0.92,3.608,1.336c0.88,0.304,1.752,0.6,2.648,0.864c1.272,0.384,2.568,0.704,3.864,1.016
			c0.872,0.208,1.744,0.432,2.632,0.608c1.424,0.288,2.88,0.496,4.336,0.696c0.8,0.112,1.6,0.256,2.4,0.336l0.528,0.072
			c3.145,15.33,1.846,31.239-3.744,45.856l-55.528-51.256L144.217,229.568z M274.505,375.728
			c9.022,8.346,14.154,20.077,14.16,32.368v13.232c0,24.301-19.699,44-44,44s-44-19.699-44-44V307.6l50.296,46.4L274.505,375.728z
			 M264.841,273.328h-0.856c-30.47-0.175-55.132-24.826-55.32-55.296v-0.704c0.035-30.913,25.087-55.965,56-56v16h16v-13.64
			c18.071,5.431,32.209,19.569,37.64,37.64h-13.64v16h16C320.666,248.187,295.701,273.231,264.841,273.328z"/>
	</g>
</g>
<g>
</g>
<g>
</g>
<g>
</g>
<g>
</g>
<g>
</g>
<g>
</g>
<g>
</g>
<g>
</g>
<g>
</g>
<g>
</g>
<g>
</g>
<g>
</g>
<g>
</g>
<g>
</g>
<g>
</g>
</svg>
