<?xml version="1.0" encoding="iso-8859-1"?>
<!-- Generator: Adobe Illustrator 19.0.0, SVG Export Plug-In . SVG Version: 6.00 Build 0)  -->
<svg version="1.1" id="Capa_1" xmlns="http://www.w3.org/2000/svg" xmlns:xlink="http://www.w3.org/1999/xlink" x="0px" y="0px"
	 viewBox="0 0 512 512" style="enable-background:new 0 0 512 512;" xml:space="preserve">
<g>
	<g>
		<path d="M486.37,272.892c-12.396-12.395-37.178-22.178-73.765-29.146c-0.836-23.969-12.483-45.224-30.214-59.042l5.984-10.824
			c2.672-4.834,0.92-10.918-3.914-13.59c-4.831-2.672-10.917-0.92-13.59,3.913l-5.694,10.3c-9.471-4.072-19.896-6.337-30.841-6.337
			c-10.946,0-21.37,2.264-30.84,6.337l-5.694-10.299c-2.673-4.833-8.757-6.584-13.59-3.913c-4.834,2.672-6.586,8.756-3.914,13.59
			l5.983,10.823c-17.731,13.818-29.379,35.073-30.214,59.042c-36.587,6.968-61.37,16.751-73.765,29.146
			c-34.118,34.118-34.118,89.633,0,123.751c15.107,15.106,34.409,23.51,54.19,25.239c2.675,9.441,6.285,18.434,10.826,26.832
			c0.817,1.512,1.664,3.005,2.54,4.478c0.001,0.001,0.002,0.002,0.002,0.003c13.032,21.949,30.563,44.949,61.956,50.593
			c6.29,5.319,14.163,8.211,22.522,8.211c8.357,0,16.23-2.893,22.52-8.212c31.394-5.644,48.93-28.648,61.969-50.601
			c5.739-9.665,10.202-20.174,13.355-31.306c19.78-1.731,39.085-10.134,54.19-25.239c16.525-16.526,25.628-38.5,25.628-61.874
			C512,311.393,502.897,289.419,486.37,272.892z M334.335,188.166c30.09,0,54.932,22.899,58.018,52.185
			c-0.214-0.031-0.426-0.061-0.639-0.092c-0.507-0.074-1.011-0.147-1.515-0.219c-0.509-0.073-1.016-0.145-1.521-0.215
			c-0.433-0.061-0.865-0.121-1.296-0.181c-0.572-0.079-1.14-0.156-1.707-0.233c-0.366-0.049-0.732-0.099-1.096-0.147
			c-0.637-0.085-1.27-0.168-1.901-0.25c-0.291-0.038-0.583-0.076-0.873-0.113c-0.71-0.091-1.414-0.18-2.114-0.267
			c-0.21-0.026-0.42-0.053-0.629-0.079c-0.787-0.098-1.567-0.192-2.342-0.285c-0.124-0.015-0.249-0.03-0.373-0.045
			c-0.89-0.106-1.772-0.21-2.645-0.31c-0.007-0.001-0.013-0.001-0.019-0.002c-9.072-1.045-17.171-1.784-23.607-2.293
			c-0.031-0.003-0.062-0.005-0.094-0.007c-0.6-0.047-1.185-0.093-1.755-0.136c-0.057-0.004-0.113-0.008-0.169-0.013
			c-0.536-0.041-1.058-0.08-1.566-0.117c-0.082-0.006-0.162-0.012-0.243-0.018c-0.491-0.036-0.969-0.07-1.433-0.103
			c-0.068-0.005-0.134-0.01-0.201-0.014c-0.449-0.031-0.884-0.062-1.305-0.09c-0.094-0.006-0.186-0.013-0.279-0.019
			c-0.402-0.027-0.789-0.053-1.164-0.077c-0.078-0.005-0.156-0.01-0.233-0.015c-0.385-0.025-0.753-0.049-1.108-0.071
			c-0.059-0.004-0.119-0.008-0.177-0.011c-0.343-0.021-0.669-0.041-0.983-0.06c-0.071-0.004-0.143-0.008-0.211-0.013
			c-0.29-0.017-0.563-0.033-0.826-0.049c-0.074-0.004-0.152-0.009-0.224-0.013c-0.259-0.015-0.5-0.028-0.73-0.041
			c-0.056-0.003-0.115-0.006-0.169-0.009c-0.263-0.014-0.504-0.028-0.726-0.04c-0.008,0-0.017-0.001-0.024-0.001
			c-0.449-0.024-0.812-0.042-1.087-0.055c-0.019-0.001-0.041-0.002-0.059-0.003c-0.271-0.013-0.449-0.021-0.527-0.025
			c-0.148-0.006-0.296-0.01-0.444-0.01s-0.296,0.003-0.444,0.01c-0.077,0.003-0.256,0.012-0.527,0.025
			c-0.018,0.001-0.041,0.002-0.059,0.003c-0.275,0.013-0.638,0.032-1.087,0.055c-0.008,0.001-0.018,0.001-0.026,0.001
			c-0.222,0.012-0.463,0.025-0.725,0.039c-0.055,0.003-0.116,0.007-0.172,0.01c-0.229,0.013-0.467,0.026-0.724,0.041
			c-0.077,0.005-0.159,0.009-0.238,0.014c-0.259,0.015-0.526,0.031-0.81,0.048c-0.074,0.004-0.151,0.009-0.227,0.014
			c-0.309,0.019-0.629,0.038-0.965,0.059c-0.065,0.004-0.131,0.008-0.197,0.012c-0.349,0.022-0.711,0.045-1.088,0.069
			c-0.084,0.005-0.169,0.011-0.254,0.017c-0.368,0.024-0.746,0.049-1.139,0.076c-0.101,0.007-0.203,0.014-0.306,0.021
			c-0.413,0.028-0.839,0.057-1.278,0.088c-0.075,0.005-0.15,0.01-0.227,0.016c-0.455,0.032-0.923,0.066-1.405,0.101
			c-0.091,0.007-0.18,0.013-0.272,0.02c-0.496,0.036-1.006,0.075-1.529,0.114c-0.069,0.005-0.137,0.01-0.207,0.016
			c-0.555,0.043-1.125,0.087-1.708,0.133c-0.048,0.004-0.094,0.007-0.142,0.011c-6.429,0.509-14.517,1.247-23.576,2.29
			c-0.03,0.003-0.061,0.007-0.091,0.01c-0.85,0.098-1.708,0.199-2.574,0.302c-0.142,0.017-0.285,0.035-0.428,0.052
			c-0.756,0.091-1.516,0.183-2.284,0.278c-0.228,0.028-0.457,0.057-0.686,0.086c-0.682,0.085-1.367,0.171-2.057,0.26
			c-0.305,0.039-0.612,0.079-0.919,0.119c-0.617,0.08-1.237,0.161-1.86,0.244c-0.374,0.05-0.75,0.1-1.126,0.151
			c-0.557,0.075-1.115,0.151-1.677,0.229c-0.439,0.061-0.88,0.122-1.321,0.184c-0.499,0.07-0.999,0.141-1.501,0.212
			c-0.508,0.073-1.017,0.146-1.528,0.221c-0.212,0.031-0.421,0.06-0.633,0.091C279.404,211.066,304.246,188.166,334.335,188.166z
			 M346.405,369.819c1.859,4.609,3.817,8.781,5.869,12.516c0.004,0.007,0.008,0.015,0.012,0.022c0.321,0.583,0.644,1.155,0.97,1.716
			c0.046,0.079,0.092,0.158,0.137,0.237c0.302,0.518,0.606,1.026,0.912,1.525c0.073,0.12,0.147,0.238,0.221,0.357
			c0.289,0.466,0.579,0.925,0.872,1.374c0.097,0.149,0.194,0.295,0.292,0.442c0.278,0.419,0.556,0.835,0.837,1.24
			c0.118,0.171,0.239,0.338,0.358,0.507c0.266,0.376,0.532,0.751,0.801,1.114c0.143,0.193,0.288,0.38,0.433,0.57
			c0.251,0.331,0.503,0.664,0.756,0.984c0.173,0.218,0.349,0.427,0.523,0.64c0.232,0.283,0.462,0.57,0.696,0.843
			c0.214,0.251,0.433,0.491,0.65,0.735c0.199,0.224,0.398,0.456,0.598,0.674c0.326,0.354,0.657,0.693,0.988,1.031
			c0.095,0.097,0.188,0.201,0.283,0.296c0.983,0.978,1.984,1.921,2.998,2.845c0.277,0.253,0.56,0.497,0.839,0.745
			c0.627,0.557,1.257,1.11,1.898,1.648h-68.026c0.638-0.536,1.266-1.086,1.891-1.642c0.284-0.252,0.57-0.499,0.851-0.755
			c0.997-0.909,1.981-1.837,2.942-2.797c0.015-0.015,0.03-0.028,0.045-0.043c0.095-0.095,0.188-0.199,0.283-0.296
			c0.331-0.338,0.662-0.677,0.988-1.031c0.201-0.218,0.399-0.449,0.598-0.674c0.217-0.244,0.435-0.484,0.65-0.735
			c0.234-0.273,0.464-0.56,0.696-0.843c0.175-0.213,0.35-0.422,0.523-0.64c0.254-0.32,0.505-0.653,0.757-0.984
			c0.144-0.19,0.29-0.376,0.433-0.57c0.269-0.363,0.535-0.738,0.801-1.114c0.119-0.169,0.24-0.335,0.358-0.507
			c0.28-0.404,0.558-0.819,0.835-1.238c0.098-0.149,0.197-0.296,0.294-0.446c0.292-0.448,0.581-0.906,0.869-1.37
			c0.074-0.12,0.149-0.24,0.223-0.361c0.306-0.499,0.61-1.007,0.911-1.524c0.046-0.078,0.092-0.158,0.137-0.236
			c0.326-0.563,0.65-1.135,0.971-1.72c0.002-0.004,0.005-0.009,0.007-0.013c2.054-3.736,4.012-7.911,5.872-12.522H346.405z
			 M328.984,349.82c0.414-1.483,0.819-3.003,1.22-4.544c0.998-3.809,1.931-7.704,2.805-11.658h2.65
			c0.883,3.994,1.826,7.928,2.835,11.774c0.393,1.501,0.789,2.982,1.192,4.428H328.984z M196.443,382.499
			c-12.75-12.749-19.771-29.7-19.771-47.732c0-18.031,7.021-34.983,19.771-47.733c11.971-11.971,41.52-19.984,71.224-25.075
			c0.085-0.012,0.17-0.015,0.254-0.03c14.566-2.484,28.808-4.179,40.384-5.309l-57.148,57.149c-3.905,3.905-3.905,10.237,0,14.142
			c1.953,1.953,4.512,2.929,7.071,2.929c2.56,0,5.118-0.977,7.071-2.929l56.998-56.998c-1.179,12.034-2.596,23.341-4.231,33.811
			c-0.037,0.235-0.074,0.469-0.111,0.704c-0.166,1.053-0.335,2.092-0.506,3.129c-0.698,4.219-1.455,8.444-2.273,12.628
			c-0.041,0.165-0.088,0.329-0.121,0.498c-2.656,13.475-5.72,25.189-9.105,34.82c-0.058,0.166-0.094,0.336-0.143,0.503
			c-3.791,10.676-7.989,18.802-12.496,23.98c-0.068,0.078-0.136,0.157-0.205,0.234c-0.397,0.447-0.796,0.878-1.197,1.279
			c-0.815,0.814-1.645,1.603-2.49,2.367c-0.139,0.126-0.284,0.242-0.424,0.366c-0.72,0.641-1.446,1.272-2.187,1.877
			c-0.069,0.056-0.141,0.108-0.21,0.164C260.112,408.704,221.06,407.116,196.443,382.499z M350.916,484.485
			c-2.217,0.306-4.267,1.346-5.822,2.954c-2.845,2.941-6.665,4.561-10.758,4.561c-4.093,0-7.913-1.62-10.759-4.561
			c-1.556-1.608-3.605-2.648-5.822-2.954c-16.12-2.222-28.373-9.947-40.719-26.403h114.603
			C379.289,474.537,367.035,482.263,350.916,484.485z M411.101,422.364c-0.362,1.061-0.74,2.114-1.132,3.16
			c-0.109,0.29-0.215,0.581-0.326,0.869c-0.466,1.213-0.95,2.416-1.455,3.607c-0.087,0.204-0.178,0.405-0.266,0.608
			c-0.441,1.02-0.897,2.031-1.366,3.034c-0.139,0.298-0.278,0.597-0.42,0.893c-0.553,1.155-1.122,2.3-1.713,3.43
			c-0.021,0.039-0.042,0.078-0.063,0.117H264.317c-0.019-0.036-0.039-0.072-0.058-0.108c-0.595-1.136-1.167-2.287-1.724-3.448
			c-0.138-0.289-0.273-0.58-0.41-0.87c-0.474-1.012-0.935-2.032-1.38-3.062c-0.085-0.197-0.174-0.391-0.258-0.588
			c-0.507-1.193-0.991-2.399-1.459-3.614c-0.11-0.287-0.217-0.576-0.325-0.864c-0.392-1.045-0.77-2.098-1.133-3.159
			c-0.056-0.163-0.114-0.325-0.169-0.489h153.867C411.213,422.042,411.156,422.202,411.101,422.364z M472.228,382.5
			c-24.623,24.623-63.688,26.207-90.174,4.76c-0.062-0.051-0.127-0.097-0.189-0.148c-0.746-0.608-1.476-1.244-2.201-1.889
			c-0.135-0.121-0.276-0.233-0.411-0.355c-0.845-0.764-1.676-1.553-2.491-2.367c-0.008-0.008-0.016-0.017-0.024-0.025
			c-0.391-0.392-0.78-0.811-1.167-1.247c-0.073-0.082-0.147-0.167-0.22-0.251c-4.504-5.179-8.699-13.301-12.488-23.97
			c-0.049-0.168-0.085-0.338-0.144-0.504c-3.386-9.631-6.449-21.346-9.105-34.82c-0.021-0.108-0.053-0.212-0.078-0.319
			c-1.237-6.313-2.334-12.723-3.301-19.061c-0.06-0.394-0.12-0.784-0.179-1.18c-0.065-0.433-0.129-0.866-0.193-1.298
			c-1.326-9.071-2.494-18.732-3.491-28.911l56.998,56.998c1.953,1.953,4.512,2.929,7.071,2.929c2.559,0,5.119-0.977,7.071-2.929
			c3.905-3.905,3.905-10.237,0-14.142l-57.148-57.149c11.577,1.13,25.818,2.825,40.384,5.309c0.166,0.028,0.332,0.043,0.498,0.063
			c29.616,5.09,59.032,13.093,70.98,25.041C484.978,299.785,492,316.736,492,334.767S484.978,369.75,472.228,382.5z"/>
	</g>
</g>
<g>
	<g>
		<path d="M445.022,343.66c-0.132-0.64-0.332-1.271-0.582-1.87c-0.25-0.61-0.55-1.19-0.92-1.73c-0.359-0.55-0.779-1.06-1.239-1.52
			c-0.461-0.46-0.971-0.88-1.521-1.24c-0.54-0.36-1.12-0.67-1.729-0.92c-0.601-0.25-1.23-0.45-1.87-0.57c-1.29-0.26-2.61-0.26-3.9,0
			c-0.64,0.12-1.27,0.32-1.87,0.57c-0.609,0.25-1.189,0.56-1.729,0.92c-0.551,0.36-1.061,0.78-1.521,1.24
			c-0.46,0.46-0.88,0.97-1.24,1.52c-0.359,0.54-0.67,1.12-0.92,1.73c-0.25,0.6-0.449,1.23-0.569,1.87c-0.13,0.64-0.2,1.3-0.2,1.95
			c0,2.63,1.07,5.21,2.93,7.07c0.46,0.46,0.97,0.88,1.521,1.24c0.54,0.37,1.12,0.67,1.729,0.92c0.601,0.26,1.23,0.45,1.87,0.58
			c0.64,0.13,1.3,0.19,1.95,0.19c0.649,0,1.31-0.06,1.95-0.19s1.27-0.32,1.87-0.58c0.609-0.25,1.189-0.55,1.729-0.92
			c0.55-0.36,1.06-0.78,1.521-1.24c1.859-1.86,2.93-4.44,2.93-7.07C445.212,344.96,445.151,344.3,445.022,343.66z"/>
	</g>
</g>
<g>
	<g>
		<path d="M243.261,343.66c-0.121-0.64-0.322-1.271-0.572-1.87c-0.25-0.61-0.56-1.19-0.92-1.73c-0.359-0.55-0.779-1.06-1.239-1.52
			c-0.461-0.46-0.971-0.88-1.521-1.24c-0.54-0.36-1.12-0.67-1.729-0.92c-0.601-0.25-1.23-0.44-1.87-0.57c-1.29-0.26-2.62-0.26-3.9,0
			c-0.64,0.13-1.27,0.32-1.87,0.57c-0.609,0.25-1.189,0.56-1.729,0.92c-0.551,0.36-1.061,0.78-1.521,1.24
			c-0.46,0.46-0.88,0.97-1.24,1.52c-0.369,0.54-0.67,1.12-0.92,1.73c-0.25,0.6-0.449,1.23-0.58,1.87
			c-0.13,0.64-0.189,1.3-0.189,1.95c0,2.63,1.07,5.21,2.93,7.07c0.46,0.46,0.97,0.88,1.521,1.24c0.54,0.36,1.12,0.67,1.729,0.92
			c0.601,0.25,1.23,0.45,1.87,0.57c0.64,0.13,1.3,0.2,1.95,0.2c0.649,0,1.309-0.07,1.95-0.2c0.64-0.12,1.27-0.32,1.87-0.57
			c0.609-0.25,1.189-0.56,1.729-0.92c0.55-0.36,1.06-0.78,1.521-1.24c1.859-1.86,2.93-4.44,2.93-7.07
			C243.461,344.96,243.391,344.3,243.261,343.66z"/>
	</g>
</g>
<g>
	<g>
		<path d="M244.308,133.729l-52.327-30.211v-60.42c0-3.573-1.906-6.874-5-8.66L129.654,1.34c-3.094-1.786-6.906-1.786-10,0
			L62.327,34.437c-3.094,1.786-5,5.087-5,8.66v60.42L5,133.729c-3.094,1.786-5,5.087-5,8.66v66.196c0,3.573,1.906,6.874,5,8.66
			l57.327,33.098c1.547,0.893,3.274,1.34,5,1.34c1.727,0,3.453-0.447,5-1.34l52.327-30.212l52.327,30.212
			c1.547,0.893,3.273,1.34,5,1.34s3.453-0.447,5-1.34l57.327-33.098c3.094-1.786,5-5.087,5-8.66v-66.196
			C249.308,138.816,247.402,135.515,244.308,133.729z M114.654,202.81l-47.327,27.326L20,202.811v-54.649l47.325-27.323
			l47.329,27.325V202.81z M77.327,103.518V48.871l47.327-27.324l47.327,27.324v54.647l-47.327,27.324L77.327,103.518z
			 M229.309,202.811l-47.327,27.325l-47.327-27.325v-54.646l47.329-27.325l47.325,27.323V202.811z"/>
	</g>
</g>
<g>
</g>
<g>
</g>
<g>
</g>
<g>
</g>
<g>
</g>
<g>
</g>
<g>
</g>
<g>
</g>
<g>
</g>
<g>
</g>
<g>
</g>
<g>
</g>
<g>
</g>
<g>
</g>
<g>
</g>
</svg>
