<?xml version="1.0" encoding="iso-8859-1"?>
<!-- Generator: Adobe Illustrator 19.0.0, SVG Export Plug-In . SVG Version: 6.00 Build 0)  -->
<svg version="1.1" id="Capa_1" xmlns="http://www.w3.org/2000/svg" xmlns:xlink="http://www.w3.org/1999/xlink" x="0px" y="0px"
	 viewBox="0 0 483.331 483.331" style="enable-background:new 0 0 483.331 483.331;" xml:space="preserve">
<g>
	<g>
		<path d="M470.643,94.634c-12.338-12.406-29.127-19.36-46.624-19.312c-6.329,0-12.625,0.908-18.696,2.696
			c1.788-6.071,2.696-12.367,2.696-18.696c0.048-17.497-6.906-34.286-19.312-46.624L376.019,0.01l-12.688,12.688
			c-18.639,18.456-24.396,46.288-14.608,70.624h-49.392l16-16L280.019,32.01l-51.312,51.312H0.019v48h152v32h-32
			c-13.255,0-24,10.745-24,24c0.026,2.732,0.524,5.438,1.472,8H80.019c-17.673,0-32,14.327-32,32c0.031,5.634,1.567,11.158,4.448,16
			h-4.448c-17.673,0.007-31.994,14.34-31.987,32.013c0.003,6.379,1.912,12.612,5.483,17.899
			c-16.617,5.685-25.48,23.764-19.795,40.381c3.183,9.304,10.491,16.612,19.795,19.795c-9.893,14.645-6.04,34.537,8.605,44.429
			c5.286,3.571,11.519,5.48,17.899,5.483h4.448c-2.881,4.842-4.417,10.366-4.448,16c0,17.673,14.327,32,32,32h17.472
			c-0.948,2.562-1.446,5.268-1.472,8c0,13.255,10.745,24,24,24h120c13.255,0,24-10.745,24-24c-0.026-2.732-0.524-5.438-1.472-8
			h17.472c17.673,0,32-14.327,32-32c-0.031-5.634-1.567-11.158-4.448-16h4.448c17.673-0.007,31.994-14.34,31.987-32.013
			c-0.003-6.379-1.912-12.612-5.483-17.899c16.617-5.685,25.479-23.764,19.795-40.381c-3.183-9.304-10.491-16.612-19.795-19.795
			c9.893-14.645,6.04-34.537-8.605-44.429c-5.286-3.571-11.519-5.48-17.899-5.483h-4.448c2.881-4.842,4.417-10.366,4.448-16
			c0-17.673-14.327-32-32-32h-17.472c0.948-2.562,1.446-5.268,1.472-8c0-13.255-10.745-24-24-24h-40v-32h184v-5.6
			c26.216,20.11,63.28,17.662,86.624-5.72l12.688-12.68L470.643,94.634z M48.019,387.322c-8.837,0-16-7.163-16-16s7.163-16,16-16
			h88.8c-0.064,0.288,0,0.584-0.088,0.872c-0.459,2.349-0.697,4.735-0.712,7.128v24H48.019z M240.019,467.322h-120
			c-4.418,0-8-3.582-8-8s3.582-8,8-8h120c4.418,0,8,3.582,8,8S244.438,467.322,240.019,467.322z M280.019,435.322h-200
			c-8.837,0-16-7.163-16-16s7.163-16,16-16h200c8.837,0,16,7.163,16,16S288.856,435.322,280.019,435.322z M152.019,387.322v-24
			c-0.068-13.202,10.58-23.959,23.781-24.026c8.615-0.044,16.586,4.55,20.867,12.026c2.174,3.627,3.331,7.772,3.352,12v24H152.019z
			 M312.019,387.322h-96v-24c-0.026-2.394-0.275-4.78-0.744-7.128c-0.056-0.288,0-0.584-0.088-0.872h96.832c8.837,0,16,7.163,16,16
			S320.856,387.322,312.019,387.322z M344.019,323.322c0,8.837-7.163,16-16,16H207.851c-0.064-0.08-0.136-0.152-0.2-0.24
			c-0.28-0.368-0.6-0.696-0.896-1.056c-0.8-0.928-1.544-1.84-2.4-2.696c-0.416-0.424-0.856-0.8-1.288-1.208
			c-0.8-0.72-1.6-1.432-2.4-2.088c-0.496-0.4-1.016-0.8-1.528-1.136c-0.8-0.592-1.656-1.152-2.512-1.68
			c-0.56-0.344-1.12-0.664-1.688-0.976c-0.88-0.48-1.768-0.92-2.68-1.328c-0.592-0.272-1.176-0.536-1.784-0.8
			c-0.944-0.376-1.912-0.696-2.888-0.992c-0.6-0.184-1.184-0.384-1.792-0.544c-1.072-0.28-2.168-0.48-3.264-0.664
			c-0.528-0.088-1.048-0.216-1.6-0.288c-3.292-0.446-6.628-0.446-9.92,0c-0.536,0.072-1.056,0.192-1.6,0.288
			c-1.096,0.184-2.192,0.384-3.264,0.664c-0.608,0.16-1.192,0.36-1.792,0.544c-0.976,0.304-1.936,0.616-2.888,0.992
			c-0.608,0.24-1.192,0.504-1.784,0.8c-0.912,0.416-1.8,0.848-2.68,1.328c-0.568,0.312-1.136,0.64-1.688,0.976
			c-0.864,0.528-1.696,1.088-2.512,1.68c-0.52,0.368-1.032,0.736-1.528,1.136c-0.8,0.656-1.6,1.368-2.4,2.088
			c-0.432,0.4-0.872,0.8-1.288,1.208c-0.8,0.856-1.6,1.768-2.4,2.696c-0.296,0.36-0.616,0.688-0.896,1.056
			c-0.064,0.08-0.136,0.152-0.2,0.24H32.019c-8.837,0-16-7.163-16-16s7.163-16,16-16h296
			C336.856,307.322,344.019,314.485,344.019,323.322z M312.019,259.322c8.837,0,16,7.163,16,16s-7.163,16-16,16h-264
			c-8.837,0-16-7.163-16-16s7.163-16,16-16H312.019z M280.019,211.322c8.837,0,16,7.163,16,16s-7.163,16-16,16h-200
			c-8.837,0-16-7.163-16-16s7.163-16,16-16H280.019z M240.019,179.322c4.418,0,8,3.582,8,8s-3.582,8-8,8h-120c-4.418,0-8-3.582-8-8
			s3.582-8,8-8H240.019z M168.019,163.322v-32h16v32H168.019z M16.019,115.322v-16h219.312l44.688-44.688l12.688,12.688l-32,32
			h96.84c0.176,0.232,0.384,0.416,0.56,0.64c1.616,2.098,3.358,4.097,5.216,5.984l1.376,1.376l3.312,3.312l0.008,4.688H16.019z
			 M377.395,94.634l-1.376,1.376l-1.376-1.376c-2.354-2.361-4.468-4.95-6.312-7.728c-13.129-19.792-10.493-46.095,6.304-62.888
			l0.008-0.008l1.376-1.376l1.376,1.376C396.895,43.513,396.895,75.13,377.395,94.634z M459.331,108.698
			c-19.503,19.499-51.12,19.499-70.624,0l-1.376-1.376l1.376-1.376c19.503-19.499,51.12-19.499,70.624,0l1.376,1.376
			L459.331,108.698z"/>
	</g>
</g>
<g>
	<g>
		<path d="M458.475,250.466c6.878-11.946,4.913-27.018-4.8-36.8l-4.264-4.264c12.194-5.195,17.869-19.292,12.674-31.486
			c-3.768-8.845-12.451-14.588-22.066-14.594h-1.376c-6.368-0.015-12.477,2.517-16.968,7.032l-5.656,5.656l-2.344-2.344
			c-7.776-7.722-19.094-10.684-29.656-7.76v-18.584h-16v24h-24v16h18.584c-2.925,10.562,0.036,21.881,7.76,29.656l2.344,2.344
			l-5.656,5.656c-4.515,4.49-7.047,10.6-7.032,16.968v1.376c0.008,13.255,10.759,23.994,24.014,23.986
			c9.615-0.006,18.298-5.749,22.066-14.594l4.264,4.264c9.741,9.797,24.872,11.771,36.8,4.8l11.2,11.2l11.312-11.312
			L458.475,250.466z M392.019,243.322c0,4.418-3.582,8-8,8s-8-3.582-8-8v-1.376c0.007-2.12,0.849-4.153,2.344-5.656l11.312-11.312
			l2.344-2.344V243.322z M394.371,197.658l-10.352,10.352l-2.344-2.344c-5.697-5.716-5.697-14.964,0-20.68
			c5.718-5.692,14.962-5.692,20.68,0l0.008-0.008l2.344,2.344L394.371,197.658z M408.019,232.01v-20.688h20.688l4,4l-20.688,20.688
			L408.019,232.01z M440.65,247.154c-5.111,3.722-12.039,3.722-17.151,0l20.352-20.352
			C448.587,233.306,447.154,242.418,440.65,247.154z M440.019,195.322h-20.688l2.344-2.344l11.312-11.312
			c1.503-1.495,3.536-2.337,5.656-2.344h1.376c4.418,0,8,3.582,8,8S444.438,195.322,440.019,195.322z"/>
	</g>
</g>
<g>
</g>
<g>
</g>
<g>
</g>
<g>
</g>
<g>
</g>
<g>
</g>
<g>
</g>
<g>
</g>
<g>
</g>
<g>
</g>
<g>
</g>
<g>
</g>
<g>
</g>
<g>
</g>
<g>
</g>
</svg>
