<svg xmlns="http://www.w3.org/2000/svg" height="512pt" version="1.1" viewBox="-9 0 512 512" width="512pt">
<g id="surface1">
<path d="M 294.101562 174 L 199.402344 174 L 152.050781 256 L 199.402344 338 L 294.101562 338 L 341.453125 256 Z M 294.101562 174 " style=" stroke:none;fill-rule:nonzero;fill:rgb(99.607843%,76.862745%,47.058824%);fill-opacity:1;" />
<path d="M 294.101562 10 L 199.402344 10 L 152.050781 92 L 199.402344 174 L 294.101562 174 L 341.453125 92 Z M 294.101562 10 " style=" stroke:none;fill-rule:nonzero;fill:rgb(98.431373%,69.019608%,20%);fill-opacity:1;" />
<path d="M 294.101562 338 L 199.402344 338 L 152.050781 420 L 199.402344 502 L 294.101562 502 L 341.453125 420 Z M 294.101562 338 " style=" stroke:none;fill-rule:nonzero;fill:rgb(98.431373%,69.019608%,20%);fill-opacity:1;" />
<path d="M 436.148438 92 L 341.449219 92 L 294.097656 174 L 341.449219 256 L 436.148438 256 L 483.5 174 Z M 436.148438 92 " style=" stroke:none;fill-rule:nonzero;fill:rgb(99.215686%,85.882353%,34.901961%);fill-opacity:1;" />
<path d="M 436.148438 256 L 341.449219 256 L 294.097656 338 L 341.449219 420 L 436.148438 420 L 483.5 338 Z M 436.148438 256 " style=" stroke:none;fill-rule:nonzero;fill:rgb(99.607843%,76.862745%,47.058824%);fill-opacity:1;" />
<path d="M 412.960938 389.847656 L 364.636719 389.847656 C 361.0625 389.847656 357.761719 387.941406 355.976562 384.847656 L 331.8125 343 C 330.027344 339.90625 330.027344 336.09375 331.8125 333 L 355.976562 291.152344 C 357.761719 288.058594 361.0625 286.152344 364.636719 286.152344 L 392.878906 286.152344 C 398.402344 286.152344 402.878906 290.632812 402.878906 296.152344 C 402.878906 301.675781 398.402344 306.152344 392.878906 306.152344 L 370.410156 306.152344 L 352.019531 338 L 370.410156 369.847656 L 407.191406 369.847656 L 409.375 366.066406 C 412.136719 361.285156 418.25 359.644531 423.035156 362.40625 C 427.816406 365.167969 429.457031 371.285156 426.695312 376.066406 L 421.625 384.847656 C 419.835938 387.941406 416.535156 389.847656 412.960938 389.847656 Z M 412.960938 389.847656 " style=" stroke:none;fill-rule:nonzero;fill:rgb(0%,0%,0%);fill-opacity:1;" />
<path d="M 437.121094 348 C 436.46875 348 435.820312 347.929688 435.167969 347.800781 C 434.53125 347.679688 433.898438 347.480469 433.300781 347.230469 C 432.699219 346.980469 432.121094 346.679688 431.570312 346.308594 C 431.03125 345.949219 430.519531 345.53125 430.058594 345.070312 C 429.589844 344.609375 429.179688 344.101562 428.808594 343.550781 C 428.449219 343.011719 428.140625 342.429688 427.890625 341.820312 C 427.640625 341.21875 427.449219 340.589844 427.320312 339.949219 C 427.191406 339.308594 427.128906 338.648438 427.128906 338 C 427.128906 337.351562 427.191406 336.691406 427.320312 336.050781 C 427.449219 335.410156 427.640625 334.78125 427.890625 334.179688 C 428.140625 333.570312 428.449219 332.992188 428.808594 332.453125 C 429.179688 331.902344 429.589844 331.390625 430.058594 330.929688 C 430.519531 330.472656 431.03125 330.050781 431.570312 329.691406 C 432.121094 329.320312 432.699219 329.019531 433.300781 328.769531 C 433.898438 328.519531 434.53125 328.320312 435.167969 328.191406 C 436.460938 327.929688 437.789062 327.929688 439.078125 328.191406 C 439.71875 328.320312 440.347656 328.519531 440.949219 328.769531 C 441.550781 329.019531 442.128906 329.320312 442.679688 329.691406 C 443.226562 330.050781 443.738281 330.472656 444.199219 330.929688 C 444.660156 331.390625 445.078125 331.902344 445.4375 332.453125 C 445.796875 332.992188 446.109375 333.570312 446.359375 334.179688 C 446.609375 334.78125 446.796875 335.410156 446.929688 336.050781 C 447.058594 336.691406 447.128906 337.351562 447.128906 338 C 447.128906 338.648438 447.058594 339.3125 446.929688 339.949219 C 446.796875 340.589844 446.609375 341.222656 446.359375 341.820312 C 446.109375 342.429688 445.796875 343.011719 445.4375 343.550781 C 445.078125 344.101562 444.660156 344.609375 444.199219 345.070312 C 443.738281 345.53125 443.226562 345.949219 442.679688 346.308594 C 442.136719 346.679688 441.546875 346.980469 440.949219 347.230469 C 440.347656 347.480469 439.71875 347.679688 439.078125 347.800781 C 438.429688 347.929688 437.78125 348 437.121094 348 Z M 437.121094 348 " style=" stroke:none;fill-rule:nonzero;fill:rgb(0%,0%,0%);fill-opacity:1;" />
<path d="M 152.050781 92 L 57.347656 92 L 10 174 L 57.347656 256 L 152.050781 256 L 199.402344 174 Z M 152.050781 92 " style=" stroke:none;fill-rule:nonzero;fill:rgb(99.607843%,76.862745%,47.058824%);fill-opacity:1;" />
<path d="M 152.050781 256 L 57.347656 256 L 10 338 L 57.347656 420 L 152.050781 420 L 199.402344 338 Z M 152.050781 256 " style=" stroke:none;fill-rule:nonzero;fill:rgb(99.215686%,85.882353%,34.901961%);fill-opacity:1;" />
<path d="M 447.695312 256 L 492.160156 179 C 493.945312 175.90625 493.945312 172.09375 492.160156 169 L 444.808594 87 C 443.023438 83.90625 439.71875 82 436.148438 82 L 347.222656 82 L 302.761719 5 C 300.972656 1.90625 297.671875 0 294.101562 0 L 199.402344 0 C 195.828125 0 192.527344 1.90625 190.742188 5 L 146.277344 82 L 57.351562 82 C 53.777344 82 50.476562 83.90625 48.691406 87 L 1.339844 169 C -0.445312 172.09375 -0.445312 175.90625 1.339844 179 L 45.800781 256 L 1.339844 333 C -0.445312 336.09375 -0.445312 339.90625 1.339844 343 L 48.691406 425 C 50.476562 428.09375 53.777344 430 57.351562 430 L 146.277344 430 L 190.742188 507 C 192.527344 510.09375 195.828125 512 199.402344 512 L 294.101562 512 C 297.671875 512 300.972656 510.09375 302.761719 507 L 347.226562 430 L 436.148438 430 C 439.722656 430 443.023438 428.09375 444.808594 425 L 492.160156 343 C 493.945312 339.90625 493.945312 336.09375 492.160156 333 Z M 471.953125 174 L 430.375 246 L 347.222656 246 L 305.648438 174.003906 L 347.226562 102 L 430.375 102 Z M 288.324219 328 L 205.175781 328 L 163.597656 256 L 205.175781 184 L 288.324219 184 L 329.902344 256 Z M 205.175781 20 L 288.328125 20 L 329.902344 91.996094 L 288.324219 164 L 205.175781 164 L 163.597656 92 Z M 63.125 102 L 146.277344 102 L 187.851562 174 L 146.277344 246 L 63.125 246 L 21.546875 174 Z M 21.546875 338 L 63.125 266 L 146.277344 266 L 187.851562 338 L 146.277344 410 L 63.125 410 Z M 288.328125 492 L 205.175781 492 L 163.597656 420 L 205.175781 348 L 288.324219 348 L 329.902344 420.003906 Z M 430.375 410 L 347.226562 410 L 305.648438 337.996094 L 347.222656 266 L 430.375 266 L 471.953125 338 Z M 430.375 410 " style=" stroke:none;fill-rule:nonzero;fill:rgb(0%,0%,0%);fill-opacity:1;" />
<path d="M 128.863281 225.847656 L 80.535156 225.847656 C 76.964844 225.847656 73.664062 223.941406 71.875 220.847656 L 47.714844 179 C 45.925781 175.90625 45.925781 172.09375 47.714844 169 L 71.875 127.152344 C 73.664062 124.058594 76.964844 122.152344 80.535156 122.152344 L 108.78125 122.152344 C 114.304688 122.152344 118.78125 126.632812 118.78125 132.152344 C 118.78125 137.675781 114.304688 142.152344 108.78125 142.152344 L 86.308594 142.152344 L 67.921875 174 L 86.308594 205.847656 L 123.089844 205.847656 L 125.273438 202.066406 C 128.035156 197.285156 134.152344 195.644531 138.933594 198.40625 C 143.71875 201.167969 145.355469 207.285156 142.59375 212.066406 L 137.523438 220.847656 C 135.738281 223.941406 132.433594 225.847656 128.863281 225.847656 Z M 128.863281 225.847656 " style=" stroke:none;fill-rule:nonzero;fill:rgb(0%,0%,0%);fill-opacity:1;" />
<path d="M 153.03125 184 C 150.398438 184 147.820312 182.929688 145.960938 181.070312 C 144.097656 179.210938 143.03125 176.628906 143.03125 174 C 143.03125 173.351562 143.089844 172.6875 143.21875 172.050781 C 143.347656 171.410156 143.539062 170.78125 143.789062 170.179688 C 144.039062 169.570312 144.347656 168.992188 144.707031 168.449219 C 145.078125 167.898438 145.488281 167.390625 145.957031 166.929688 C 148.277344 164.609375 151.726562 163.539062 154.976562 164.191406 C 155.621094 164.320312 156.25 164.519531 156.847656 164.769531 C 157.457031 165.019531 158.039062 165.320312 158.578125 165.691406 C 159.128906 166.050781 159.636719 166.46875 160.097656 166.929688 C 160.558594 167.390625 160.976562 167.898438 161.339844 168.449219 C 161.699219 168.988281 162.007812 169.570312 162.257812 170.179688 C 162.507812 170.78125 162.699219 171.410156 162.828125 172.050781 C 162.957031 172.691406 163.027344 173.351562 163.027344 174 C 163.027344 176.628906 161.957031 179.210938 160.097656 181.070312 C 159.636719 181.53125 159.128906 181.949219 158.578125 182.308594 C 158.039062 182.667969 157.457031 182.980469 156.847656 183.230469 C 156.246094 183.480469 155.617188 183.679688 154.976562 183.800781 C 154.339844 183.929688 153.679688 184 153.03125 184 Z M 153.03125 184 " style=" stroke:none;fill-rule:nonzero;fill:rgb(0%,0%,0%);fill-opacity:1;" />
</g>
</svg>