<?xml version="1.0" encoding="iso-8859-1"?>
<!-- Generator: Adobe Illustrator 19.0.0, SVG Export Plug-In . SVG Version: 6.00 Build 0)  -->
<svg version="1.1" id="Capa_1" xmlns="http://www.w3.org/2000/svg" xmlns:xlink="http://www.w3.org/1999/xlink" x="0px" y="0px"
	 viewBox="0 0 512 512" style="enable-background:new 0 0 512 512;" xml:space="preserve">
<g>
	<path style="fill:#FED46B;" d="M109.39,233.71c15.89,5.07,32.24,8.29,48.72,9.67c20.444,43.051,67.221,89.821,110.26,110.26
		c1.38,16.48,4.6,32.83,9.67,48.72l0.1,0.31c-22.22,19.79-46.38,34.72-70.4,44.37v-0.01
		c-55.162-11.657-131.365-87.871-143.02-143.02h-0.01c9.65-24.02,24.58-48.18,44.37-70.4C109.18,233.64,109.28,233.68,109.39,233.71
		z"/>
	<path style="fill:#FED46B;" d="M317.9,193.85c0.21,0.21,0.42,0.42,0.64,0.63c-23.04,27.6-38.26,59.52-45.66,92.83h-0.01
		c-8.63-6.72-17.26-14.34-25.68-22.75c-8.41-8.42-16.03-17.05-22.75-25.68v-0.01c33.31-7.4,65.23-22.62,92.83-45.66
		C317.48,193.43,317.69,193.64,317.9,193.85z"/>
</g>
<path style="fill:#787880;" d="M272.87,287.31h0.01c-4.993,22.385-6.3,44.888-4.51,66.33c-20.11-9.55-42.56-25.61-63.6-46.66
	c-21.05-21.04-37.11-43.49-46.66-63.6c21.441,1.79,43.944,0.484,66.33-4.51v0.01c6.72,8.63,14.34,17.26,22.75,25.68
	C255.61,272.97,264.24,280.59,272.87,287.31z"/>
<path style="fill:#FFFFFF;" d="M67.11,421.55c3.01,4.55,6.46,8.8,10.38,12.71c3.91,3.92,8.16,7.37,12.71,10.38L9.75,502
	L67.11,421.55z"/>
<g>
	<path style="fill:#787880;" d="M431.04,80.71c-31.2-31.2-81.955-31.185-113.14,0c-18.89,18.89-26.34,44.96-22.35,69.51l65.98,65.98
		c24.55,3.99,50.62-3.46,69.51-22.35C462.242,162.648,462.222,111.892,431.04,80.71z"/>
	<path style="fill:#787880;" d="M207.74,447.03v0.01c-43.742,17.571-96.982,20.573-130.25-12.78
		c-33.273-33.188-30.417-86.343-12.78-130.25h0.01c5.26,24.89,25.15,57.79,55.19,87.83C149.95,421.88,182.85,441.77,207.74,447.03z"
		/>
</g>
<g>
	<path style="fill:#FFFFFF;" d="M318.54,194.48c4.23-5.07,8.73-10,13.5-14.77c11.32,11.32,21.15,23.56,29.49,36.49
		c54.94,85.2,45.11,200.04-29.49,274.63C250.873,409.663,246.424,280.869,318.54,194.48z"/>
	<path style="fill:#FFFFFF;" d="M332.04,179.71c-4.77,4.77-9.7,9.27-14.77,13.5c-86.902,72.544-215.588,67.262-296.35-13.5
		c74.59-74.6,189.43-84.43,274.63-29.49C308.48,158.56,320.72,168.39,332.04,179.71z"/>
</g>
<g>
	<path style="fill:#020202;" d="M135.72,319.71c-3.91,3.91-3.91,10.24,0,14.14c3.9,3.91,10.24,3.91,14.14,0
		c3.91-3.9,3.91-10.23,0-14.14C145.96,315.81,139.62,315.81,135.72,319.71z"/>
	<path style="fill:#020202;" d="M445.59,81.803c-2.238-2.855-4.648-5.585-7.228-8.165s-5.31-4.991-8.165-7.228
		c13.247-19.452,11.263-46.243-5.975-63.482c-3.905-3.904-10.237-3.904-14.143,0c-3.905,3.905-3.905,10.237,0,14.143
		c10.562,10.562,11.584,27.103,3.073,38.826c-34.076-16.11-75.005-9.326-102.072,17.741c-15.731,15.73-24.914,36.723-26.161,58.613
		c-88.99-47.358-199.05-31.393-270.82,40.388c-3.905,3.905-3.905,10.236,0,14.142c22.648,22.648,48.943,39.889,78.313,51.403
		C48.555,293.11,25.473,367.56,55.397,421.102L1.858,496.194c-2.836,3.978-2.383,9.423,1.071,12.877
		c3.46,3.459,8.905,3.902,12.876,1.071l75.097-53.543c56.114,31.361,132.039,3.61,182.914-37.011
		c11.513,29.37,28.754,55.664,51.403,78.313c1.953,1.952,4.512,2.929,7.071,2.929c2.559,0,5.118-0.977,7.071-2.929
		c71.809-71.799,87.729-181.863,40.384-270.825c21.89-1.247,42.885-10.423,58.616-26.155
		c27.069-27.068,33.853-67.999,17.743-102.073c11.723-8.511,28.264-7.488,38.825,3.073c3.905,3.904,10.237,3.904,14.142,0
		c3.905-3.906,3.905-10.237,0-14.143C491.833,70.541,465.041,68.557,445.59,81.803z M317.799,179.71
		c-2.196,1.994-4.429,3.939-6.688,5.823c-79.828,66.638-197.913,64.736-275.452-5.815
		C113.333,109.344,236.121,105.528,317.799,179.71z M207.151,436.559c-23.381-5.968-53.668-25.538-79.92-51.791
		c-26.253-26.252-45.823-56.54-51.791-79.92c5.77-13.726,13.316-27.37,22.345-40.425c2.294,10.417,6.798,21.937,13.479,34.224
		c2.642,4.859,8.718,6.642,13.562,4.008c4.852-2.639,6.646-8.71,4.008-13.563c-9.296-17.095-13.779-32.66-12.696-43.063
		c11.693,3.179,23.657,5.452,35.743,6.763c10.532,20.358,26.711,41.911,46.065,61.257c19.349,19.358,40.903,35.536,61.26,46.068
		c1.311,12.085,3.585,24.055,6.771,35.768c-18.395,2.052-53.379-13.219-89.402-46.864c-4.037-3.771-10.364-3.553-14.134,0.483
		s-3.554,10.364,0.482,14.134c21.019,19.631,44.077,35.302,64.926,44.127c6.944,2.939,13.532,5.087,19.716,6.455
		C234.514,423.246,220.874,430.79,207.151,436.559z M220.713,249.914c6.037,7.39,12.623,14.676,19.661,21.721
		c7.04,7.031,14.324,13.617,21.713,19.653c-2.806,14.444-4.226,29.209-4.226,43.982c0,0.39,0.01,0.78,0.012,1.17
		c-15.374-9.35-31.197-21.939-45.783-36.532c-14.59-14.584-27.179-30.406-36.53-45.781c0.39,0.002,0.78,0.012,1.17,0.012
		C191.505,254.14,206.272,252.719,220.713,249.914z M267.428,269.601c-4.372-3.847-8.689-7.89-12.913-12.109
		c-4.224-4.229-8.269-8.548-12.117-12.921c14.681-4.374,28.919-10.21,42.438-17.408
		C277.638,240.683,271.801,254.922,267.428,269.601z M67.735,438.25c1.963,2.154,3.721,3.923,6.016,6.015l-20.96,14.944
		L67.735,438.25z M95.967,436.299c-7.989-5.285-14.872-12.114-20.265-20.263c-13.869-20.984-17.239-49.63-10.048-81.127
		c10.379,20.984,26.907,43.474,47.435,64.002s43.018,37.055,64.002,47.435C145.594,453.537,116.949,450.167,95.967,436.299z
		 M332.282,476.34c-69.902-76.826-73.178-194.758-5.813-275.453c1.882-2.257,3.827-4.489,5.822-6.686
		C406.491,275.894,402.638,398.686,332.282,476.34z M424.219,186.778c-14.857,14.857-35.758,22.205-56.624,20.104
		c-8.243-12.219-17.716-23.726-28.234-34.244c-10.515-10.516-22.023-19.989-34.244-28.234c-2.104-20.866,5.248-41.768,20.104-56.623
		c27.28-27.28,71.611-27.393,98.998,0C451.56,115.122,451.551,159.447,424.219,186.778z"/>
</g>
<g>
</g>
<g>
</g>
<g>
</g>
<g>
</g>
<g>
</g>
<g>
</g>
<g>
</g>
<g>
</g>
<g>
</g>
<g>
</g>
<g>
</g>
<g>
</g>
<g>
</g>
<g>
</g>
<g>
</g>
</svg>
