<svg viewBox="-46 0 512 512" xmlns="http://www.w3.org/2000/svg" xmlns:xlink="http://www.w3.org/1999/xlink"><linearGradient id="a" gradientUnits="userSpaceOnUse" x1="-.001" x2="420.999" y1="256" y2="256"><stop offset="0" stop-color="#80d8ff"/><stop offset="1" stop-color="#ea80fc"/></linearGradient><path d="m369.644531 303.199219 48.679688-84.410157c3.566406-6.183593 3.566406-13.796874 0-19.980468l-54.441407-94.402344c-3.570312-6.191406-10.175781-10.007812-17.324218-10.007812h-97.234375l-48.671875-84.390626c-3.574219-6.191406-10.179688-10.007812-17.328125-10.007812h-108.882813c-7.148437 0-13.753906 3.816406-17.324218 10.007812l-54.441407 94.398438c-3.566406 6.1875-3.566406 13.800781 0 19.984375l48.679688 84.410156-48.679688 84.40625c-3.566406 6.183594-3.566406 13.800781 0 19.984375l54.441407 94.398438c3.570312 6.195312 10.175781 10.007812 17.324218 10.007812h97.234375l48.671875 84.394532c3.570313 6.191406 10.175782 10.007812 17.324219 10.007812h108.886719c7.148437 0 13.753906-3.816406 17.324218-10.007812l54.441407-94.398438c3.566406-6.1875 3.566406-13.800781 0-19.984375zm-34.640625-168.800781 42.90625 74.402343-42.90625 74.398438h-85.683594l-42.90625-74.398438 42.90625-74.402343zm-291.917968-20 42.910156-74.398438h85.777344l42.859374 74.316406-42.957031 74.484375h-85.679687zm42.910156 263.203124-42.910156-74.402343 42.910156-74.398438h85.679687l42.910157 74.398438-42.910157 74.402343zm249.007812 94.398438h-85.777344l-42.859374-74.316406 42.953124-74.484375h85.683594l42.90625 74.402343zm0 0" fill="url(#a)"/></svg>