<?xml version="1.0" encoding="iso-8859-1"?>
<!-- Generator: Adobe Illustrator 19.0.0, SVG Export Plug-In . SVG Version: 6.00 Build 0)  -->
<svg version="1.1" id="Capa_1" xmlns="http://www.w3.org/2000/svg" xmlns:xlink="http://www.w3.org/1999/xlink" x="0px" y="0px"
	 viewBox="0 0 512 512" style="enable-background:new 0 0 512 512;" xml:space="preserve">
<g>
	<g>
		<path d="M503.708,61.584l-120-60c-4.223-2.111-9.193-2.111-13.416,0l-120,60c-5.082,2.541-8.292,7.734-8.292,13.416v81.993
			c-25.031,2.007-47.619,12.64-64.952,29.524l-10.332-25.828c-18.068-45.171-76.482-57.121-110.851-22.753
			c-31.855,31.855-24.392,85.28,15.009,107.17c0,0,0,0,0.001,0l30.553,16.974c-4.417,4.417-25.989,25.989-27.953,27.953
			C31.377,332.13,19.143,394.911,41.481,449.307L4.393,486.393c-5.858,5.858-5.858,15.355,0,21.213
			c5.856,5.858,15.355,5.858,21.213,0l37.088-37.087c54.438,22.355,117.213,10.066,159.273-31.995l27.953-27.953l16.974,30.552
			c21.865,39.36,75.306,46.874,107.17,15.01c34.4-34.401,22.374-92.8-22.753-110.851l-25.828-10.331
			c12.53-12.863,21.546-28.564,26.218-45.83l18.59,9.295c4.223,2.111,9.193,2.111,13.416,0l120-60
			C508.79,235.876,512,230.682,512,225V75C512,69.318,508.79,64.125,503.708,61.584z M303.378,208.622
			c32.265,32.265,28.818,85.853-9.099,113.848l-74.821-29.928l-29.928-74.819C217.59,179.717,271.198,176.441,303.378,208.622z
			 M85.445,218.881c-21.947-12.193-26.129-41.967-8.365-59.732c19.199-19.198,51.681-12.576,61.784,12.681l39.459,98.649
			C165.192,263.186,99.973,226.952,85.445,218.881z M70.687,441.313c-12.542-28.012-13.299-59.119-3.353-86.897l90.25,90.25
			C129.807,454.613,98.7,453.856,70.687,441.313z M200.755,417.311c-4.771,4.772-9.887,9.042-15.26,12.839L81.851,326.505
			c3.796-5.373,8.067-10.488,12.838-15.26l7.164-7.164l106.066,106.066L200.755,417.311z M229.132,388.934L123.065,282.868
			l5.637-5.637l68.185,37.881l37.881,68.186L229.132,388.934z M340.169,373.137c25.208,10.083,31.918,42.548,12.683,61.784
			c-17.756,17.756-47.533,13.596-59.732-8.365c-5.543-9.977-46.539-83.77-51.599-92.877
			C253.749,338.569,327.845,368.208,340.169,373.137z M482,215.73l-105,52.5l-21.732-10.866c-0.434-11.15-2.625-22.051-6.462-32.353
			l61.832-15.458c8.037-2.009,12.924-10.153,10.914-18.19c-2.009-8.037-10.157-12.924-18.189-10.914l-69.617,17.404
			c-2.589-3.37-5.397-6.606-8.42-9.688l34.698-60.722c4.11-7.193,1.611-16.355-5.581-20.466c-7.191-4.11-16.355-1.611-20.466,5.582
			l-32.702,57.227c-9.167-5.104-19.026-8.775-29.275-10.919V84.271l105-52.5l105,52.5V215.73z"/>
	</g>
</g>
<g>
</g>
<g>
</g>
<g>
</g>
<g>
</g>
<g>
</g>
<g>
</g>
<g>
</g>
<g>
</g>
<g>
</g>
<g>
</g>
<g>
</g>
<g>
</g>
<g>
</g>
<g>
</g>
<g>
</g>
</svg>
