<?xml version="1.0" encoding="iso-8859-1"?>
<!-- Generator: Adobe Illustrator 19.0.0, SVG Export Plug-In . SVG Version: 6.00 Build 0)  -->
<svg version="1.1" id="Capa_1" xmlns="http://www.w3.org/2000/svg" xmlns:xlink="http://www.w3.org/1999/xlink" x="0px" y="0px"
	 viewBox="0 0 512.001 512.001" style="enable-background:new 0 0 512.001 512.001;" xml:space="preserve">
<g>
	<g>
		<path d="M503.655,61.559L382.66,1.561c-4.214-2.089-9.164-2.082-13.371,0.022L249.294,61.581
			c-5.082,2.541-8.292,7.735-8.292,13.416v69.118c-6.748,7.887-12.063,16.838-15.727,26.487
			c-21.434,0.207-42.97,5.124-62.713,13.023c-2.875-3.278-5.866-6.497-8.996-9.627c-47.58-47.581-108.144-61.553-137.88-31.819
			c-29.736,29.737-15.76,90.301,31.819,137.879c0.831,0.831,1.677,1.636,2.519,2.449c-22.539,45.479-15.143,111.158-1.49,159.736
			L4.404,486.373c-5.858,5.857-5.858,15.354,0,21.212c5.857,5.858,15.354,5.858,21.212,0l44.128-44.127
			c48.607,13.66,114.303,21.035,159.743-1.484c0.811,0.839,1.614,1.684,2.442,2.512c21.647,21.647,47.069,37.251,71.583,43.937
			c23.738,6.473,49.046,5.134,66.297-12.118c29.737-29.737,15.76-90.301-31.819-137.879c-3.13-3.13-6.349-6.122-9.627-8.997
			c8.002-19.997,12.818-41.512,13.023-62.712c2.958-1.123,5.851-2.401,8.668-3.828l19.232,9.617
			c4.203,2.102,9.154,2.114,13.371,0.022l120.995-59.997c5.105-2.532,8.336-7.739,8.336-13.437V74.997
			C511.991,69.297,508.761,64.091,503.655,61.559z M288.204,223.787c17.335,17.335,24.128,41.275,23.251,65.676l-88.927-88.927
			C246.933,199.66,270.869,206.452,288.204,223.787z M36.899,163.392c16.935-16.935,61.722-1.914,95.456,31.819
			c17.842,17.843,31.233,39.303,36.738,58.878c4.694,16.69,3.267,30.385-3.916,37.572c-0.002,0.002-0.004,0.003-0.005,0.005
			c-0.001,0.001-0.003,0.003-0.004,0.005c-7.188,7.182-20.883,8.611-37.572,3.916c-19.575-5.505-41.035-18.896-58.878-36.738
			C31.216,221.346,21.85,178.442,36.899,163.392z M77.452,434.43c-6.047-21.102-13.575-58.549-11.336-93.335L171.093,446.07
			C133.227,448.54,93.434,438.895,77.452,434.43z M206.633,439.187L72.872,305.426c0.371-1.049,0.753-2.09,1.157-3.116
			c28.447,19.811,69.68,35.434,100.111,19.533l16.002,16.002c-7.603,14.549-8.593,33.418-2.615,54.67
			c4.28,15.217,11.908,30.746,22.187,45.494C208.696,438.419,207.67,438.813,206.633,439.187z M195.356,300.637
			c14.622-27.982,2.397-65.178-14.17-91.962c1.772-0.618,3.541-1.208,5.303-1.755l118.582,118.582
			c-0.548,1.762-1.137,3.531-1.755,5.303c-12.242-7.573-24.871-13.292-37.291-16.785c-21.253-5.978-40.121-4.988-54.671,2.616
			L195.356,300.637z M348.6,475.092c-7.258,7.256-20.813,8.854-37.191,4.389c-19.273-5.257-40.51-18.454-58.265-36.207
			c-17.843-17.843-31.233-39.303-36.738-58.878c-4.695-16.694-3.267-30.391,3.92-37.577c8.919-8.919,25.383-7.351,37.577-3.92
			c19.575,5.505,41.035,18.896,58.878,36.738C354.282,417.139,363.649,460.042,348.6,475.092z M351.842,244.999
			c-4.104,4.104-8.74,7.558-13.76,10.292c-4.738-20.53-14.457-38.508-28.665-52.716c-14.207-14.208-32.186-23.927-52.717-28.666
			c2.735-5.02,6.189-9.657,10.292-13.759c23.447-23.447,61.398-23.451,84.85,0C375.235,183.543,375.235,221.606,351.842,244.999z
			 M481.993,209.787h-0.001l-104.806,51.969c25.519-29.184,29-71.028,10.445-103.673l1.922-0.69
			c14.393-5.171,30.233,2.789,34.564,17.579c2.34,7.986,10.699,12.498,18.611,10.179c7.95-2.329,12.506-10.661,10.179-18.61
			c-8.527-29.108-38.695-46.605-68.572-38.882c7.711-29.832-9.736-60.035-38.882-68.571c-7.946-2.33-16.281,2.228-18.61,10.179
			c-2.328,7.95,2.229,16.282,10.18,18.61c14.644,4.289,22.797,20.031,17.578,34.564l-0.681,1.896
			c-26.088-14.893-57.328-15.289-82.915-3.197V84.267l105.023-52.512l105.968,52.546V209.787z"/>
	</g>
</g>
<g>
</g>
<g>
</g>
<g>
</g>
<g>
</g>
<g>
</g>
<g>
</g>
<g>
</g>
<g>
</g>
<g>
</g>
<g>
</g>
<g>
</g>
<g>
</g>
<g>
</g>
<g>
</g>
<g>
</g>
</svg>
