<?xml version="1.0" encoding="iso-8859-1"?>
<!-- Generator: Adobe Illustrator 19.0.0, SVG Export Plug-In . SVG Version: 6.00 Build 0)  -->
<svg version="1.1" id="Layer_1" xmlns="http://www.w3.org/2000/svg" xmlns:xlink="http://www.w3.org/1999/xlink" x="0px" y="0px"
	 viewBox="0 0 512 512" style="enable-background:new 0 0 512 512;" xml:space="preserve">
<g>
	<polygon style="fill:#F8C442;" points="511.998,469.697 438.819,511.947 365.641,469.697 365.641,385.197 438.819,342.947 
		511.998,385.197 	"/>
	<polygon style="fill:#F8C442;" points="438.819,89.402 365.641,131.652 365.641,216.188 292.461,258.438 292.461,342.947 
		219.282,385.197 219.282,469.697 292.461,511.947 365.641,469.697 365.641,385.197 365.516,385.125 365.641,385.188 
		438.819,342.937 438.819,258.438 438.471,258.237 438.819,258.402 511.998,216.152 511.998,131.652 	"/>
</g>
<g>
	<polygon style="fill:#F4A240;" points="511.998,385.189 511.998,469.687 438.817,511.947 419.501,500.794 493.095,458.308 
		493.095,374.273 	"/>
	<polygon style="fill:#F4A240;" points="512,131.648 493.097,120.733 493.097,204.768 419.915,247.513 419.916,247.513 
		419.915,247.513 419.915,331.549 346.322,374.035 346.329,457.899 273.143,500.794 292.459,511.947 365.641,469.687 
		365.641,385.185 438.819,342.927 438.819,258.652 512,216.147 	"/>
</g>
<g>
	<polygon style="fill:#F8C442;" points="365.641,216.152 365.641,131.652 292.461,89.402 219.282,131.652 219.282,216.19 
		146.107,258.438 146.107,342.949 146.103,342.947 72.925,385.197 72.925,469.697 146.103,511.947 219.282,469.697 219.282,385.197 
		219.183,385.139 219.286,385.188 292.465,342.937 292.465,258.438 292.225,258.299 292.461,258.402 	"/>
	<polygon style="fill:#F8C442;" points="219.237,131.652 146.058,89.402 72.879,131.652 72.879,216.152 73.06,216.257 0,258.438 
		0,342.937 73.179,385.188 146.358,342.937 146.358,258.438 146.177,258.333 219.237,216.152 	"/>
</g>
<g>
	<polygon style="fill:#F4A240;" points="365.641,131.643 346.322,120.49 346.329,204.355 273.562,247.513 273.562,331.549 
		199.968,374.035 199.973,374.04 199.964,374.035 199.971,457.899 126.785,500.794 146.1,511.947 219.282,469.687 219.282,385.683 
		292.465,342.927 292.465,258.429 292.454,258.422 365.641,216.142 	"/>
	<polygon style="fill:#F4A240;" points="219.277,131.643 199.959,120.522 199.966,204.355 127.454,247.513 127.454,331.549 
		53.861,374.035 73.177,385.188 146.358,342.927 146.358,258.429 146.203,258.34 219.277,216.142 	"/>
	<circle style="fill:#F4A240;" cx="100.229" cy="444.627" r="8.848"/>
	<circle style="fill:#F4A240;" cx="126.254" cy="468.012" r="8.848"/>
	<circle style="fill:#F4A240;" cx="327.042" cy="266.224" r="8.848"/>
	<circle style="fill:#F4A240;" cx="102.859" cy="175.753" r="8.848"/>
	<circle style="fill:#F4A240;" cx="180.952" cy="266.224" r="8.848"/>
	<circle style="fill:#F4A240;" cx="394.877" cy="444.627" r="8.848"/>
</g>
<path style="fill:#975D50;" d="M1.455,11.642c1.983-2.152,5.334-2.29,7.485-0.307l14.114,13.003c2.152,1.983,2.29,5.334,0.307,7.485
	s-5.334,2.29-7.485,0.307L1.762,19.127C-0.39,17.144-0.528,13.793,1.455,11.642z"/>
<path style="fill:#F8C442;" d="M18.409,27.26L18.409,27.26C34.807,9.463,62.785,8.317,80.582,24.715l20.713,19.083
	c17.797,16.398,18.943,44.375,2.545,62.173l0,0c-16.398,17.797-44.375,18.943-62.173,2.545L20.955,89.433
	C3.157,73.036,2.013,45.058,18.409,27.26z"/>
<g>
	<path style="fill:#975D50;" d="M65.828,119.747l48.637-52.79c-1.282-6.052-3.842-11.882-7.661-17.026l-58.576,63.577
		C53.669,116.894,59.688,118.969,65.828,119.747z"/>
	
		<rect x="17.129" y="58.043" transform="matrix(-0.6776 0.7354 -0.7354 -0.6776 151.5486 66.8167)" style="fill:#975D50;" width="88" height="17.166"/>
	<path style="fill:#975D50;" d="M56.425,13.482L7.788,66.272c1.278,6.057,3.833,11.882,7.652,17.026l58.576-63.577
		C68.577,16.337,62.562,14.265,56.425,13.482z"/>
</g>
<g>
	<path style="fill:#CCCCCC;" d="M96.634,89.09l11.997,7.078l11.997,7.078c0,0,73.138-40.616,57.438-79.687
		c-1.385-3.445-3.484-6.695-6.021-9.664c-2.181-2.554-5.857-5.425-8.921-7.239c-0.834-0.494-1.669-0.986-2.504-1.478
		c-3.069-1.805-7.36-3.634-10.651-4.307c-3.825-0.783-7.685-1.05-11.371-0.595C96.81,5.432,96.634,89.09,96.634,89.09z"/>
	<path style="fill:#CCCCCC;" d="M86.425,100.171l8.034,11.379l8.034,11.379c0,0-34.501,76.213-74.725,63.76
		c-3.547-1.098-6.958-2.925-10.124-5.21c-2.723-1.965-5.886-5.394-7.944-8.3c-0.56-0.791-1.119-1.583-1.677-2.375
		c-2.05-2.912-4.223-7.04-5.164-10.264c-1.093-3.748-1.675-7.573-1.523-11.284C3.061,107.184,86.425,100.171,86.425,100.171z"/>
</g>
<g>
	<circle style="fill:#975D50;" cx="108.897" cy="110.627" r="33.223"/>
	<path style="fill:#975D50;" d="M122.941,133.702c0.654-0.71,1.509-1.249,2.508-1.52c2.823-0.764,5.733,0.906,6.498,3.729
		l4.399,16.25c0.764,2.823-0.904,5.733-3.729,6.498c-2.823,0.764-5.733-0.906-6.498-3.729l-4.399-16.25
		C121.228,136.855,121.749,134.997,122.941,133.702z"/>
	<path style="fill:#975D50;" d="M133.038,122.743c1.193-1.295,3.003-1.967,4.861-1.624l16.556,3.055
		c2.877,0.531,4.779,3.294,4.248,6.171c-0.532,2.877-3.293,4.779-6.171,4.248l-16.556-3.055c-2.877-0.531-4.779-3.294-4.248-6.171
		C131.917,124.349,132.384,123.452,133.038,122.743z"/>
</g>
<circle style="fill:#F4A240;" cx="400.216" cy="175.753" r="8.848"/>
<g>
</g>
<g>
</g>
<g>
</g>
<g>
</g>
<g>
</g>
<g>
</g>
<g>
</g>
<g>
</g>
<g>
</g>
<g>
</g>
<g>
</g>
<g>
</g>
<g>
</g>
<g>
</g>
<g>
</g>
</svg>
