<svg height="389pt" viewBox="-2 0 389 389.45963" width="389pt" xmlns="http://www.w3.org/2000/svg"><path d="m189.890625 327.378906 19.113281-33.664062-50.488281-88.917969h-100.96875l-50.488281 88.917969 50.488281 88.917968h100.96875l12.671875-22.316406" fill="#00e7ff"/><path d="m158.515625 389.460938h-100.972656c-2.457031 0-4.722657-1.320313-5.9375-3.457032l-50.484375-88.917968c-1.1875002-2.089844-1.1875002-4.648438 0-6.738282l50.484375-88.917968c1.214843-2.136719 3.480469-3.457032 5.9375-3.457032h100.972656c2.457031 0 4.726563 1.320313 5.9375 3.457032l50.488281 88.917968c1.1875 2.089844 1.1875 4.648438 0 6.738282l-19.113281 33.664062c-1.855469 3.285156-6.03125 4.429688-9.308594 2.566406-3.277343-1.863281-4.425781-6.027344-2.566406-9.304687l17.203125-30.296875-46.613281-82.089844h-93.023438l-46.613281 82.089844 46.613281 82.089844h93.027344l10.703125-18.859376c1.863281-3.277343 6.035156-4.421874 9.308594-2.566406 3.28125 1.859375 4.425781 6.03125 2.566406 9.304688l-12.671875 22.316406c-1.210937 2.136719-3.480469 3.460938-5.9375 3.460938zm0 0" fill="#602f75"/><path d="m327.648438 95.570312h-100.972657l-50.484375 88.746094 50.484375 88.75h100.972657l50.488281-88.75zm0 0" fill="#fff"/><path d="m327.648438 279.890625h-100.972657c-2.453125 0-4.71875-1.316406-5.933593-3.449219l-50.484376-88.746094c-1.191406-2.09375-1.191406-4.660156 0-6.753906l50.484376-88.746094c1.214843-2.132812 3.480468-3.449218 5.933593-3.449218h100.972657c2.453124 0 4.71875 1.316406 5.933593 3.449218l50.484375 88.746094c1.191406 2.09375 1.191406 4.660156 0 6.753906l-50.484375 88.746094c-1.214843 2.132813-3.480469 3.449219-5.933593 3.449219zm-97-13.652344h93.027343l46.605469-81.921875-46.605469-81.917968h-93.027343l-46.605469 81.917968zm0 0" fill="#602f75"/><path d="m304.347656 136.53125h-54.371094l-27.183593 47.785156 27.183593 47.789063h54.371094l27.183594-47.789063zm0 0" fill="#ea3457"/><path d="m304.347656 238.929688h-54.367187c-2.457031 0-4.722657-1.3125-5.9375-3.445313l-27.183594-47.789063c-1.1875-2.09375-1.1875-4.660156 0-6.753906l27.183594-47.785156c1.214843-2.132812 3.480469-3.449219 5.9375-3.449219h54.367187c2.453125 0 4.722656 1.316407 5.933594 3.449219l27.183594 47.785156c1.191406 2.09375 1.191406 4.660156 0 6.753906l-27.183594 47.789063c-1.214844 2.132813-3.480469 3.445313-5.933594 3.445313zm-50.402344-13.652344h46.429688l23.300781-40.960938-23.300781-40.957031h-46.429688l-23.296874 40.957031zm0 0" fill="#ea3457"/><path d="m176.320312 6.824219h-100.972656l-50.484375 88.746093 50.484375 88.746094h100.972656l50.488282-88.746094zm0 0" fill="#ffe600"/><path d="m176.320312 191.144531h-100.972656c-2.453125 0-4.722656-1.316406-5.933594-3.449219l-50.488281-88.746093c-1.1875-2.09375-1.1875-4.660157 0-6.753907l50.488281-88.746093c1.210938-2.132813 3.480469-3.449219 5.933594-3.449219h100.972656c2.453126 0 4.722657 1.316406 5.933594 3.449219l50.488282 88.746093c1.1875 2.09375 1.1875 4.660157 0 6.753907l-50.488282 88.746093c-1.210937 2.132813-3.480468 3.449219-5.933594 3.449219zm-97.003906-13.652343h93.035156l46.601563-81.921876-46.601563-81.917968h-93.035156l-46.601562 81.917968zm0 0" fill="#602f75"/><g fill="#ea3457"><path d="m92.199219 159.988281c-2.359375 0-4.652344-1.222656-5.917969-3.410156l-7.988281-13.835937c-1.882813-3.269532-.761719-7.441407 2.5-9.328126 3.273437-1.894531 7.441406-.761718 9.328125 2.5l7.988281 13.835938c1.882813 3.265625.761719 7.4375-2.503906 9.328125-1.074219.617187-2.246094.910156-3.40625.910156zm0 0"/><path d="m71.542969 124.203125c-2.363281 0-4.65625-1.222656-5.921875-3.414063l-12.980469-22.476562c-1.214844-2.113281-1.214844-4.714844 0-6.828125l33.640625-58.261719c1.886719-3.265625 6.046875-4.386718 9.328125-2.5 3.265625 1.886719 4.382813 6.0625 2.5 9.324219l-31.671875 54.851563 11.007812 19.0625c1.886719 3.265624.769532 7.441406-2.5 9.328124-1.070312.621094-2.25.914063-3.402343.914063zm0 0"/></g></svg>