<?xml version="1.0" encoding="iso-8859-1"?>
<!-- Generator: Adobe Illustrator 19.0.0, SVG Export Plug-In . SVG Version: 6.00 Build 0)  -->
<svg version="1.1" id="Capa_1" xmlns="http://www.w3.org/2000/svg" xmlns:xlink="http://www.w3.org/1999/xlink" x="0px" y="0px"
	 viewBox="0 0 464 464" style="enable-background:new 0 0 464 464;" xml:space="preserve">
<path style="fill:#FBBF00;" d="M232,232c-29.182-29.146-74.383-34.865-109.904-13.904l123.808,123.808
	C266.865,306.383,261.146,261.182,232,232L232,232z"/>
<path style="fill:#FFA900;" d="M424,0l40,24v48l-40,24l-40-24V24L424,0z"/>
<path style="fill:#E47700;" d="M344,0l40,24v48l-40,24l-40-24V24L344,0z"/>
<path style="fill:#FBBF00;" d="M384,72l40,24v48l-40,24l-40-24V96L384,72z"/>
<g>
	<path style="fill:#5B3514;" d="M256,64h16v104h-16V64z"/>
	<path style="fill:#5B3514;" d="M296,192h104v16H296V192z"/>
</g>
<path style="fill:#763A02;" d="M256,144L256,144c35.346,0,64,28.654,64,64l0,0c0,35.346-28.654,64-64,64l0,0
	c-35.346,0-64-28.654-64-64l0,0C192,172.654,220.654,144,256,144z"/>
<path style="fill:#5B3514;" d="M0,447.032C0,456.403,7.597,464,16.968,464c4.501,0.001,8.817-1.786,12-4.968L72,416l-24-24
	L4.968,435.032C1.786,438.215-0.001,442.531,0,447.032z"/>
<path style="fill:#763A02;" d="M40,329.136V392c0,17.673,14.327,32,32,32h62.864c0.36,0,0.72-0.048,1.08-0.056l-95.888-95.888
	C40.048,328.416,40,328.8,40,329.136z"/>
<path style="fill:#FBBF00;" d="M63.432,272.568c-14.721,14.746-23.107,34.654-23.376,55.488l95.888,95.888
	c20.834-0.269,40.742-8.655,55.488-23.376L200,392L72,264L63.432,272.568z"/>
<path style="fill:#763A02;" d="M104,232l-32,32l128,128l32-32c5.38-5.42,10.052-11.501,13.904-18.096L122.096,218.096
	C115.501,221.948,109.42,226.62,104,232z"/>
<path style="fill:#81D1FE;" d="M184,280l87.272,80.56C281.935,370.404,288,384.256,288,398.768V412c0,28.719-23.281,52-52,52
	s-52-23.281-52-52V280z"/>
<path style="fill:#08B7FC;" d="M184,280l-88.8-88.8c-9.764-9.748-23.003-15.216-36.8-15.2H52c-28.719,0-52,23.281-52,52
	s23.281,52,52,52H184z"/>
<g>
</g>
<g>
</g>
<g>
</g>
<g>
</g>
<g>
</g>
<g>
</g>
<g>
</g>
<g>
</g>
<g>
</g>
<g>
</g>
<g>
</g>
<g>
</g>
<g>
</g>
<g>
</g>
<g>
</g>
</svg>
